solid OpenSCAD_Model
  facet normal 0 0 -1
    outer loop
      vertex -2.02254 1.46946 -1
      vertex -1.46946 2.02254 -1
      vertex -2.37764 0.772542 -1
    endloop
  endfacet
  facet normal 0 0 -1
    outer loop
      vertex -2.37764 0.772542 -1
      vertex -1.46946 2.02254 -1
      vertex -0.772542 2.37764 -1
    endloop
  endfacet
  facet normal 0 0 -1
    outer loop
      vertex -2.37764 0.772542 -1
      vertex -0.772542 2.37764 -1
      vertex 0 2.5 -1
    endloop
  endfacet
  facet normal 0 0 -1
    outer loop
      vertex -2.37764 0.772542 -1
      vertex 0 2.5 -1
      vertex 0.772542 2.37764 -1
    endloop
  endfacet
  facet normal 0 0 -1
    outer loop
      vertex -0.463525 1.42658 -1
      vertex 0.772542 2.37764 -1
      vertex 1.46946 2.02254 -1
    endloop
  endfacet
  facet normal 0 0 -1
    outer loop
      vertex 0.463525 1.42658 -1
      vertex 1.46946 2.02254 -1
      vertex 2.02254 1.46946 -1
    endloop
  endfacet
  facet normal 0 0 -1
    outer loop
      vertex 1.21352 0.881678 -1
      vertex 2.02254 1.46946 -1
      vertex 2.37764 0.772542 -1
    endloop
  endfacet
  facet normal 0 0 -1
    outer loop
      vertex 1.42658 0.463525 -1
      vertex 2.37764 0.772542 -1
      vertex 2.5 0 -1
    endloop
  endfacet
  facet normal 0 0 -1
    outer loop
      vertex 1.42658 -0.463525 -1
      vertex 2.5 0 -1
      vertex 2.37764 -0.772542 -1
    endloop
  endfacet
  facet normal 0 0 -1
    outer loop
      vertex 1.21352 -0.881678 -1
      vertex 2.37764 -0.772542 -1
      vertex 2.02254 -1.46946 -1
    endloop
  endfacet
  facet normal 0 0 -1
    outer loop
      vertex 0.881678 -1.21352 -1
      vertex 2.02254 -1.46946 -1
      vertex 1.46946 -2.02254 -1
    endloop
  endfacet
  facet normal 0 0 -1
    outer loop
      vertex 0 -1.5 -1
      vertex 1.46946 -2.02254 -1
      vertex 0.772542 -2.37764 -1
    endloop
  endfacet
  facet normal 0 0 -1
    outer loop
      vertex -0.881678 -1.21352 -1
      vertex 0.772542 -2.37764 -1
      vertex 0 -2.5 -1
    endloop
  endfacet
  facet normal 0 0 -1
    outer loop
      vertex -1.21352 -0.881678 -1
      vertex 0 -2.5 -1
      vertex -0.772542 -2.37764 -1
    endloop
  endfacet
  facet normal 0 0 -1
    outer loop
      vertex -2.37764 0.772542 -1
      vertex -0.772542 -2.37764 -1
      vertex -1.46946 -2.02254 -1
    endloop
  endfacet
  facet normal 0 0 -1
    outer loop
      vertex -2.37764 0.772542 -1
      vertex -1.46946 -2.02254 -1
      vertex -2.02254 -1.46946 -1
    endloop
  endfacet
  facet normal 0 0 -1
    outer loop
      vertex -2.37764 0.772542 -1
      vertex -2.02254 -1.46946 -1
      vertex -2.37764 -0.772542 -1
    endloop
  endfacet
  facet normal 0 0 -1
    outer loop
      vertex -2.37764 0.772542 -1
      vertex -2.37764 -0.772542 -1
      vertex -2.5 0 -1
    endloop
  endfacet
  facet normal 0 0 -1
    outer loop
      vertex -1.21352 -0.881678 -1
      vertex -2.37764 0.772542 -1
      vertex -1.42658 -0.463525 -1
    endloop
  endfacet
  facet normal 0 0 -1
    outer loop
      vertex -0.881678 -1.21352 -1
      vertex 0 -2.5 -1
      vertex -1.21352 -0.881678 -1
    endloop
  endfacet
  facet normal 0 0 -1
    outer loop
      vertex -2.37764 0.772542 -1
      vertex -1.21352 -0.881678 -1
      vertex -0.772542 -2.37764 -1
    endloop
  endfacet
  facet normal 0 0 -1
    outer loop
      vertex -0.463525 -1.42658 -1
      vertex 0.772542 -2.37764 -1
      vertex -0.881678 -1.21352 -1
    endloop
  endfacet
  facet normal 0 0 -1
    outer loop
      vertex 0 -1.5 -1
      vertex 0.772542 -2.37764 -1
      vertex -0.463525 -1.42658 -1
    endloop
  endfacet
  facet normal 0 0 -1
    outer loop
      vertex 0.463525 -1.42658 -1
      vertex 1.46946 -2.02254 -1
      vertex 0 -1.5 -1
    endloop
  endfacet
  facet normal 0 0 -1
    outer loop
      vertex -1.5 0 -1
      vertex -2.37764 0.772542 -1
      vertex -1.42658 0.463525 -1
    endloop
  endfacet
  facet normal 0 0 -1
    outer loop
      vertex 1.21352 -0.881678 -1
      vertex 2.02254 -1.46946 -1
      vertex 0.881678 -1.21352 -1
    endloop
  endfacet
  facet normal 0 0 -1
    outer loop
      vertex 1.42658 -0.463525 -1
      vertex 2.37764 -0.772542 -1
      vertex 1.21352 -0.881678 -1
    endloop
  endfacet
  facet normal 0 0 -1
    outer loop
      vertex 1.5 0 -1
      vertex 2.5 0 -1
      vertex 1.42658 -0.463525 -1
    endloop
  endfacet
  facet normal 0 0 -1
    outer loop
      vertex 1.42658 0.463525 -1
      vertex 2.5 0 -1
      vertex 1.5 0 -1
    endloop
  endfacet
  facet normal 0 0 -1
    outer loop
      vertex 1.21352 0.881678 -1
      vertex 2.37764 0.772542 -1
      vertex 1.42658 0.463525 -1
    endloop
  endfacet
  facet normal 0 0 -1
    outer loop
      vertex 0.881678 1.21352 -1
      vertex 2.02254 1.46946 -1
      vertex 1.21352 0.881678 -1
    endloop
  endfacet
  facet normal 0 0 -1
    outer loop
      vertex 0.463525 1.42658 -1
      vertex 2.02254 1.46946 -1
      vertex 0.881678 1.21352 -1
    endloop
  endfacet
  facet normal 0 0 -1
    outer loop
      vertex 0 1.5 -1
      vertex 1.46946 2.02254 -1
      vertex 0.463525 1.42658 -1
    endloop
  endfacet
  facet normal 0 0 -1
    outer loop
      vertex -0.463525 1.42658 -1
      vertex 1.46946 2.02254 -1
      vertex 0 1.5 -1
    endloop
  endfacet
  facet normal 0 0 -1
    outer loop
      vertex -2.37764 0.772542 -1
      vertex 0.772542 2.37764 -1
      vertex -0.463525 1.42658 -1
    endloop
  endfacet
  facet normal 0 0 -1
    outer loop
      vertex -0.881678 1.21352 -1
      vertex -2.37764 0.772542 -1
      vertex -0.463525 1.42658 -1
    endloop
  endfacet
  facet normal 0 0 -1
    outer loop
      vertex -1.21352 0.881678 -1
      vertex -2.37764 0.772542 -1
      vertex -0.881678 1.21352 -1
    endloop
  endfacet
  facet normal 0 0 -1
    outer loop
      vertex -1.42658 0.463525 -1
      vertex -2.37764 0.772542 -1
      vertex -1.21352 0.881678 -1
    endloop
  endfacet
  facet normal 0 0 -1
    outer loop
      vertex -1.42658 -0.463525 -1
      vertex -2.37764 0.772542 -1
      vertex -1.5 0 -1
    endloop
  endfacet
  facet normal 0 0 -1
    outer loop
      vertex 0.881678 -1.21352 -1
      vertex 1.46946 -2.02254 -1
      vertex 0.463525 -1.42658 -1
    endloop
  endfacet
  facet normal -0.987688 0.156435 0
    outer loop
      vertex -2.5 0 -1
      vertex -2.5 0 0
      vertex -2.37764 0.772542 -1
    endloop
  endfacet
  facet normal -0.987688 0.156435 0
    outer loop
      vertex -2.37764 0.772542 -1
      vertex -2.5 0 0
      vertex -2.42081 0.5 0
    endloop
  endfacet
  facet normal -0.987688 0.156435 0
    outer loop
      vertex -2.37764 0.772542 -1
      vertex -2.42081 0.5 0
      vertex -2.42081 0.5 1
    endloop
  endfacet
  facet normal -0.987688 0.156435 0
    outer loop
      vertex -2.37764 0.772542 -1
      vertex -2.42081 0.5 1
      vertex -2.37764 0.772542 1
    endloop
  endfacet
  facet normal -0.987688 -0.156435 0
    outer loop
      vertex -2.5 0 -1
      vertex -2.37764 -0.772542 -1
      vertex -2.5 0 0
    endloop
  endfacet
  facet normal -0.987688 -0.156435 0
    outer loop
      vertex -2.42081 -0.5 0
      vertex -2.37764 -0.772542 -1
      vertex -2.37764 -0.772542 1
    endloop
  endfacet
  facet normal -0.987688 -0.156435 0
    outer loop
      vertex -2.5 0 0
      vertex -2.37764 -0.772542 -1
      vertex -2.42081 -0.5 0
    endloop
  endfacet
  facet normal -0.987688 -0.156435 0
    outer loop
      vertex -2.42081 -0.5 0
      vertex -2.37764 -0.772542 1
      vertex -2.42081 -0.5 1
    endloop
  endfacet
  facet normal -0.891007 0.453991 0
    outer loop
      vertex -2.37764 0.772542 -1
      vertex -2.37764 0.772542 1
      vertex -2.02254 1.46946 -1
    endloop
  endfacet
  facet normal -0.891007 0.453991 0
    outer loop
      vertex -2.02254 1.46946 -1
      vertex -2.37764 0.772542 1
      vertex -2.02254 1.46946 1
    endloop
  endfacet
  facet normal -0.891007 -0.453991 0
    outer loop
      vertex -2.37764 -0.772542 -1
      vertex -2.02254 -1.46946 -1
      vertex -2.37764 -0.772542 1
    endloop
  endfacet
  facet normal -0.891007 -0.453991 0
    outer loop
      vertex -2.37764 -0.772542 1
      vertex -2.02254 -1.46946 -1
      vertex -2.02254 -1.46946 1
    endloop
  endfacet
  facet normal -0.707107 -0.707107 0
    outer loop
      vertex -2.02254 -1.46946 1
      vertex -2.02254 -1.46946 -1
      vertex -1.46946 -2.02254 -1
    endloop
  endfacet
  facet normal -0.707107 -0.707107 0
    outer loop
      vertex -1.46946 -2.02254 1
      vertex -2.02254 -1.46946 1
      vertex -1.46946 -2.02254 -1
    endloop
  endfacet
  facet normal -0.453991 -0.891007 0
    outer loop
      vertex -1.46946 -2.02254 1
      vertex -1.46946 -2.02254 -1
      vertex -0.772542 -2.37764 -1
    endloop
  endfacet
  facet normal -0.453991 -0.891007 0
    outer loop
      vertex -0.772542 -2.37764 1
      vertex -1.46946 -2.02254 1
      vertex -0.772542 -2.37764 -1
    endloop
  endfacet
  facet normal -0.156435 -0.987688 0
    outer loop
      vertex -0.772542 -2.37764 1
      vertex -0.772542 -2.37764 -1
      vertex 0 -2.5 -1
    endloop
  endfacet
  facet normal -0.156435 -0.987688 0
    outer loop
      vertex 0 -2.5 1
      vertex -0.772542 -2.37764 1
      vertex 0 -2.5 -1
    endloop
  endfacet
  facet normal 0.156435 -0.987688 0
    outer loop
      vertex 0 -2.5 1
      vertex 0 -2.5 -1
      vertex 0.772542 -2.37764 -1
    endloop
  endfacet
  facet normal 0.156435 -0.987688 0
    outer loop
      vertex 0.772542 -2.37764 1
      vertex 0 -2.5 1
      vertex 0.772542 -2.37764 -1
    endloop
  endfacet
  facet normal 0.453991 -0.891007 0
    outer loop
      vertex 0.772542 -2.37764 1
      vertex 0.772542 -2.37764 -1
      vertex 1.46946 -2.02254 -1
    endloop
  endfacet
  facet normal 0.453991 -0.891007 0
    outer loop
      vertex 1.46946 -2.02254 1
      vertex 0.772542 -2.37764 1
      vertex 1.46946 -2.02254 -1
    endloop
  endfacet
  facet normal 0.707107 -0.707107 0
    outer loop
      vertex 1.46946 -2.02254 1
      vertex 1.46946 -2.02254 -1
      vertex 2.02254 -1.46946 -1
    endloop
  endfacet
  facet normal 0.707107 -0.707107 0
    outer loop
      vertex 2.02254 -1.46946 1
      vertex 1.46946 -2.02254 1
      vertex 2.02254 -1.46946 -1
    endloop
  endfacet
  facet normal 0.891007 -0.453991 0
    outer loop
      vertex 2.02254 -1.46946 1
      vertex 2.02254 -1.46946 -1
      vertex 2.37764 -0.772542 -1
    endloop
  endfacet
  facet normal 0.891007 -0.453991 0
    outer loop
      vertex 2.37764 -0.772542 1
      vertex 2.02254 -1.46946 1
      vertex 2.37764 -0.772542 -1
    endloop
  endfacet
  facet normal 0.987688 -0.156435 0
    outer loop
      vertex 2.42081 -0.5 0
      vertex 2.37764 -0.772542 -1
      vertex 2.5 0 -1
    endloop
  endfacet
  facet normal 0.987688 -0.156435 0
    outer loop
      vertex 2.42081 -0.5 0
      vertex 2.42081 -0.5 1
      vertex 2.37764 -0.772542 1
    endloop
  endfacet
  facet normal 0.987688 -0.156435 0
    outer loop
      vertex 2.37764 -0.772542 1
      vertex 2.37764 -0.772542 -1
      vertex 2.42081 -0.5 0
    endloop
  endfacet
  facet normal 0.987688 -0.156435 0
    outer loop
      vertex 2.5 0 0
      vertex 2.42081 -0.5 0
      vertex 2.5 0 -1
    endloop
  endfacet
  facet normal 0.987688 0.156435 0
    outer loop
      vertex 2.42081 0.5 0
      vertex 2.37764 0.772542 -1
      vertex 2.37764 0.772542 1
    endloop
  endfacet
  facet normal 0.987688 0.156435 0
    outer loop
      vertex 2.42081 0.5 0
      vertex 2.5 0 0
      vertex 2.5 0 -1
    endloop
  endfacet
  facet normal 0.987688 0.156435 0
    outer loop
      vertex 2.5 0 -1
      vertex 2.37764 0.772542 -1
      vertex 2.42081 0.5 0
    endloop
  endfacet
  facet normal 0.987688 0.156435 0
    outer loop
      vertex 2.42081 0.5 1
      vertex 2.42081 0.5 0
      vertex 2.37764 0.772542 1
    endloop
  endfacet
  facet normal 0.891007 0.453991 0
    outer loop
      vertex 2.37764 0.772542 -1
      vertex 2.02254 1.46946 -1
      vertex 2.02254 1.46946 1
    endloop
  endfacet
  facet normal 0.891007 0.453991 0
    outer loop
      vertex 2.37764 0.772542 1
      vertex 2.37764 0.772542 -1
      vertex 2.02254 1.46946 1
    endloop
  endfacet
  facet normal 0.707107 0.707107 0
    outer loop
      vertex 1.46946 2.02254 -1
      vertex 1.46946 2.02254 1
      vertex 2.02254 1.46946 -1
    endloop
  endfacet
  facet normal 0.707107 0.707107 0
    outer loop
      vertex 2.02254 1.46946 -1
      vertex 1.46946 2.02254 1
      vertex 2.02254 1.46946 1
    endloop
  endfacet
  facet normal 0.453991 0.891007 0
    outer loop
      vertex 0.772542 2.37764 -1
      vertex 0.772542 2.37764 1
      vertex 1.46946 2.02254 -1
    endloop
  endfacet
  facet normal 0.453991 0.891007 0
    outer loop
      vertex 1.46946 2.02254 -1
      vertex 0.772542 2.37764 1
      vertex 1.46946 2.02254 1
    endloop
  endfacet
  facet normal 0.156435 0.987688 0
    outer loop
      vertex 0 2.5 -1
      vertex 0 2.5 1
      vertex 0.772542 2.37764 -1
    endloop
  endfacet
  facet normal 0.156435 0.987688 0
    outer loop
      vertex 0.772542 2.37764 -1
      vertex 0 2.5 1
      vertex 0.772542 2.37764 1
    endloop
  endfacet
  facet normal -0.156435 0.987688 0
    outer loop
      vertex -0.772542 2.37764 -1
      vertex -0.772542 2.37764 1
      vertex 0 2.5 -1
    endloop
  endfacet
  facet normal -0.156435 0.987688 0
    outer loop
      vertex 0 2.5 -1
      vertex -0.772542 2.37764 1
      vertex 0 2.5 1
    endloop
  endfacet
  facet normal -0.453991 0.891007 0
    outer loop
      vertex -1.46946 2.02254 -1
      vertex -1.46946 2.02254 1
      vertex -0.772542 2.37764 -1
    endloop
  endfacet
  facet normal -0.453991 0.891007 0
    outer loop
      vertex -0.772542 2.37764 -1
      vertex -1.46946 2.02254 1
      vertex -0.772542 2.37764 1
    endloop
  endfacet
  facet normal -0.707107 0.707107 0
    outer loop
      vertex -2.02254 1.46946 -1
      vertex -2.02254 1.46946 1
      vertex -1.46946 2.02254 -1
    endloop
  endfacet
  facet normal -0.707107 0.707107 0
    outer loop
      vertex -1.46946 2.02254 -1
      vertex -2.02254 1.46946 1
      vertex -1.46946 2.02254 1
    endloop
  endfacet
  facet normal -0.891006 -0.453991 0
    outer loop
      vertex -1.42658 -0.463525 -11
      vertex -1.21352 -0.881678 -11
      vertex -1.42658 -0.463525 -1
    endloop
  endfacet
  facet normal -0.891006 -0.453991 0
    outer loop
      vertex -1.42658 -0.463525 -1
      vertex -1.21352 -0.881678 -11
      vertex -1.21352 -0.881678 -1
    endloop
  endfacet
  facet normal -0.987688 -0.156434 0
    outer loop
      vertex -1.5 0 -11
      vertex -1.42658 -0.463525 -11
      vertex -1.5 0 -1
    endloop
  endfacet
  facet normal -0.987688 -0.156434 0
    outer loop
      vertex -1.5 0 -1
      vertex -1.42658 -0.463525 -11
      vertex -1.42658 -0.463525 -1
    endloop
  endfacet
  facet normal -0.987688 0.156434 0
    outer loop
      vertex -1.5 0 -11
      vertex -1.5 0 -1
      vertex -1.42658 0.463525 -11
    endloop
  endfacet
  facet normal -0.987688 0.156434 0
    outer loop
      vertex -1.42658 0.463525 -11
      vertex -1.5 0 -1
      vertex -1.42658 0.463525 -1
    endloop
  endfacet
  facet normal -0.891006 0.453991 0
    outer loop
      vertex -1.42658 0.463525 -11
      vertex -1.42658 0.463525 -1
      vertex -1.21352 0.881678 -11
    endloop
  endfacet
  facet normal -0.891006 0.453991 0
    outer loop
      vertex -1.21352 0.881678 -11
      vertex -1.42658 0.463525 -1
      vertex -1.21352 0.881678 -1
    endloop
  endfacet
  facet normal -0.707107 0.707107 0
    outer loop
      vertex -1.21352 0.881678 -11
      vertex -1.21352 0.881678 -1
      vertex -0.881678 1.21352 -11
    endloop
  endfacet
  facet normal -0.707107 0.707107 0
    outer loop
      vertex -0.881678 1.21352 -11
      vertex -1.21352 0.881678 -1
      vertex -0.881678 1.21352 -1
    endloop
  endfacet
  facet normal -0.453991 0.891006 0
    outer loop
      vertex -0.881678 1.21352 -11
      vertex -0.881678 1.21352 -1
      vertex -0.463525 1.42658 -11
    endloop
  endfacet
  facet normal -0.453991 0.891006 0
    outer loop
      vertex -0.463525 1.42658 -11
      vertex -0.881678 1.21352 -1
      vertex -0.463525 1.42658 -1
    endloop
  endfacet
  facet normal -0.156434 0.987688 0
    outer loop
      vertex -0.463525 1.42658 -11
      vertex -0.463525 1.42658 -1
      vertex 0 1.5 -11
    endloop
  endfacet
  facet normal -0.156434 0.987688 0
    outer loop
      vertex 0 1.5 -11
      vertex -0.463525 1.42658 -1
      vertex 0 1.5 -1
    endloop
  endfacet
  facet normal 0.156434 0.987688 0
    outer loop
      vertex 0 1.5 -11
      vertex 0 1.5 -1
      vertex 0.463525 1.42658 -11
    endloop
  endfacet
  facet normal 0.156434 0.987688 0
    outer loop
      vertex 0.463525 1.42658 -11
      vertex 0 1.5 -1
      vertex 0.463525 1.42658 -1
    endloop
  endfacet
  facet normal 0.453991 0.891006 0
    outer loop
      vertex 0.463525 1.42658 -11
      vertex 0.463525 1.42658 -1
      vertex 0.881678 1.21352 -11
    endloop
  endfacet
  facet normal 0.453991 0.891006 0
    outer loop
      vertex 0.881678 1.21352 -11
      vertex 0.463525 1.42658 -1
      vertex 0.881678 1.21352 -1
    endloop
  endfacet
  facet normal 0.707107 0.707107 0
    outer loop
      vertex 0.881678 1.21352 -11
      vertex 0.881678 1.21352 -1
      vertex 1.21352 0.881678 -11
    endloop
  endfacet
  facet normal 0.707107 0.707107 0
    outer loop
      vertex 1.21352 0.881678 -11
      vertex 0.881678 1.21352 -1
      vertex 1.21352 0.881678 -1
    endloop
  endfacet
  facet normal 0.891006 0.453991 0
    outer loop
      vertex 1.42658 0.463525 -11
      vertex 1.21352 0.881678 -11
      vertex 1.21352 0.881678 -1
    endloop
  endfacet
  facet normal 0.891006 0.453991 0
    outer loop
      vertex 1.42658 0.463525 -1
      vertex 1.42658 0.463525 -11
      vertex 1.21352 0.881678 -1
    endloop
  endfacet
  facet normal 0.987688 0.156434 0
    outer loop
      vertex 1.5 0 -11
      vertex 1.42658 0.463525 -11
      vertex 1.42658 0.463525 -1
    endloop
  endfacet
  facet normal 0.987688 0.156434 0
    outer loop
      vertex 1.5 0 -1
      vertex 1.5 0 -11
      vertex 1.42658 0.463525 -1
    endloop
  endfacet
  facet normal 0.987688 -0.156434 0
    outer loop
      vertex 1.42658 -0.463525 -1
      vertex 1.42658 -0.463525 -11
      vertex 1.5 0 -11
    endloop
  endfacet
  facet normal 0.987688 -0.156434 0
    outer loop
      vertex 1.5 0 -1
      vertex 1.42658 -0.463525 -1
      vertex 1.5 0 -11
    endloop
  endfacet
  facet normal 0.891006 -0.453991 0
    outer loop
      vertex 1.21352 -0.881678 -1
      vertex 1.21352 -0.881678 -11
      vertex 1.42658 -0.463525 -11
    endloop
  endfacet
  facet normal 0.891006 -0.453991 0
    outer loop
      vertex 1.42658 -0.463525 -1
      vertex 1.21352 -0.881678 -1
      vertex 1.42658 -0.463525 -11
    endloop
  endfacet
  facet normal 0.707107 -0.707107 0
    outer loop
      vertex 0.881678 -1.21352 -1
      vertex 0.881678 -1.21352 -11
      vertex 1.21352 -0.881678 -11
    endloop
  endfacet
  facet normal 0.707107 -0.707107 0
    outer loop
      vertex 1.21352 -0.881678 -1
      vertex 0.881678 -1.21352 -1
      vertex 1.21352 -0.881678 -11
    endloop
  endfacet
  facet normal 0.453991 -0.891006 0
    outer loop
      vertex 0.463525 -1.42658 -1
      vertex 0.463525 -1.42658 -11
      vertex 0.881678 -1.21352 -11
    endloop
  endfacet
  facet normal 0.453991 -0.891006 0
    outer loop
      vertex 0.881678 -1.21352 -1
      vertex 0.463525 -1.42658 -1
      vertex 0.881678 -1.21352 -11
    endloop
  endfacet
  facet normal 0.156434 -0.987688 0
    outer loop
      vertex 0 -1.5 -1
      vertex 0 -1.5 -11
      vertex 0.463525 -1.42658 -11
    endloop
  endfacet
  facet normal 0.156434 -0.987688 0
    outer loop
      vertex 0.463525 -1.42658 -1
      vertex 0 -1.5 -1
      vertex 0.463525 -1.42658 -11
    endloop
  endfacet
  facet normal -0.156434 -0.987688 0
    outer loop
      vertex -0.463525 -1.42658 -1
      vertex -0.463525 -1.42658 -11
      vertex 0 -1.5 -11
    endloop
  endfacet
  facet normal -0.156434 -0.987688 0
    outer loop
      vertex 0 -1.5 -1
      vertex -0.463525 -1.42658 -1
      vertex 0 -1.5 -11
    endloop
  endfacet
  facet normal -0.453991 -0.891006 0
    outer loop
      vertex -0.881678 -1.21352 -1
      vertex -0.881678 -1.21352 -11
      vertex -0.463525 -1.42658 -11
    endloop
  endfacet
  facet normal -0.453991 -0.891006 0
    outer loop
      vertex -0.463525 -1.42658 -1
      vertex -0.881678 -1.21352 -1
      vertex -0.463525 -1.42658 -11
    endloop
  endfacet
  facet normal -0.707107 -0.707107 0
    outer loop
      vertex -1.21352 -0.881678 -1
      vertex -1.21352 -0.881678 -11
      vertex -0.881678 -1.21352 -11
    endloop
  endfacet
  facet normal -0.707107 -0.707107 0
    outer loop
      vertex -0.881678 -1.21352 -1
      vertex -1.21352 -0.881678 -1
      vertex -0.881678 -1.21352 -11
    endloop
  endfacet
  facet normal 0 0 1
    outer loop
      vertex -2.37764 0.772542 1
      vertex -2.42081 0.5 1
      vertex 2.42081 0.5 1
    endloop
  endfacet
  facet normal 0 0 1
    outer loop
      vertex 2.02254 1.46946 1
      vertex -2.37764 0.772542 1
      vertex 2.37764 0.772542 1
    endloop
  endfacet
  facet normal 0 0 1
    outer loop
      vertex 2.37764 0.772542 1
      vertex -2.37764 0.772542 1
      vertex 2.42081 0.5 1
    endloop
  endfacet
  facet normal 0 0 1
    outer loop
      vertex 1.46946 2.02254 1
      vertex -2.37764 0.772542 1
      vertex 2.02254 1.46946 1
    endloop
  endfacet
  facet normal 0 0 1
    outer loop
      vertex 0.772542 2.37764 1
      vertex -2.37764 0.772542 1
      vertex 1.46946 2.02254 1
    endloop
  endfacet
  facet normal 0 0 1
    outer loop
      vertex 0 2.5 1
      vertex -2.37764 0.772542 1
      vertex 0.772542 2.37764 1
    endloop
  endfacet
  facet normal 0 0 1
    outer loop
      vertex -0.772542 2.37764 1
      vertex -2.37764 0.772542 1
      vertex 0 2.5 1
    endloop
  endfacet
  facet normal 0 0 1
    outer loop
      vertex -1.46946 2.02254 1
      vertex -2.37764 0.772542 1
      vertex -0.772542 2.37764 1
    endloop
  endfacet
  facet normal 0 0 1
    outer loop
      vertex -2.02254 1.46946 1
      vertex -2.37764 0.772542 1
      vertex -1.46946 2.02254 1
    endloop
  endfacet
  facet normal 0 -1 0
    outer loop
      vertex 2.42081 0.5 0
      vertex 2.42081 0.5 1
      vertex -2.42081 0.5 1
    endloop
  endfacet
  facet normal 0 -1 0
    outer loop
      vertex -2.42081 0.5 0
      vertex 2.42081 0.5 0
      vertex -2.42081 0.5 1
    endloop
  endfacet
  facet normal 0 0 1
    outer loop
      vertex -2.42081 -0.5 0
      vertex 2.42081 -0.5 0
      vertex 2.5 0 0
    endloop
  endfacet
  facet normal 0 0 1
    outer loop
      vertex -2.42081 0.5 0
      vertex -2.42081 -0.5 0
      vertex 2.42081 0.5 0
    endloop
  endfacet
  facet normal 0 0 1
    outer loop
      vertex 2.42081 0.5 0
      vertex -2.42081 -0.5 0
      vertex 2.5 0 0
    endloop
  endfacet
  facet normal 0 0 1
    outer loop
      vertex -2.5 0 0
      vertex -2.42081 -0.5 0
      vertex -2.42081 0.5 0
    endloop
  endfacet
  facet normal 0 1 0
    outer loop
      vertex 2.42081 -0.5 1
      vertex 2.42081 -0.5 0
      vertex -2.42081 -0.5 1
    endloop
  endfacet
  facet normal 0 1 0
    outer loop
      vertex -2.42081 -0.5 1
      vertex 2.42081 -0.5 0
      vertex -2.42081 -0.5 0
    endloop
  endfacet
  facet normal 0 0 1
    outer loop
      vertex 2.42081 -0.5 1
      vertex -2.42081 -0.5 1
      vertex -2.37764 -0.772542 1
    endloop
  endfacet
  facet normal 0 0 1
    outer loop
      vertex -1.46946 -2.02254 1
      vertex 2.42081 -0.5 1
      vertex -2.02254 -1.46946 1
    endloop
  endfacet
  facet normal 0 0 1
    outer loop
      vertex -2.02254 -1.46946 1
      vertex 2.42081 -0.5 1
      vertex -2.37764 -0.772542 1
    endloop
  endfacet
  facet normal 0 0 1
    outer loop
      vertex -0.772542 -2.37764 1
      vertex 2.42081 -0.5 1
      vertex -1.46946 -2.02254 1
    endloop
  endfacet
  facet normal 0 0 1
    outer loop
      vertex 0 -2.5 1
      vertex 2.42081 -0.5 1
      vertex -0.772542 -2.37764 1
    endloop
  endfacet
  facet normal 0 0 1
    outer loop
      vertex 0.772542 -2.37764 1
      vertex 2.42081 -0.5 1
      vertex 0 -2.5 1
    endloop
  endfacet
  facet normal 0 0 1
    outer loop
      vertex 1.46946 -2.02254 1
      vertex 2.42081 -0.5 1
      vertex 0.772542 -2.37764 1
    endloop
  endfacet
  facet normal 0 0 1
    outer loop
      vertex 2.02254 -1.46946 1
      vertex 2.42081 -0.5 1
      vertex 1.46946 -2.02254 1
    endloop
  endfacet
  facet normal 0 0 1
    outer loop
      vertex 2.37764 -0.772542 1
      vertex 2.42081 -0.5 1
      vertex 2.02254 -1.46946 1
    endloop
  endfacet
  facet normal 0 0 -1
    outer loop
      vertex -1.5 0 -11
      vertex -1.42658 0.463525 -11
      vertex -1.42658 -0.463525 -11
    endloop
  endfacet
  facet normal 0 0 -1
    outer loop
      vertex -1.42658 -0.463525 -11
      vertex -1.42658 0.463525 -11
      vertex -1.21352 0.881678 -11
    endloop
  endfacet
  facet normal 0 0 -1
    outer loop
      vertex -1.42658 -0.463525 -11
      vertex -1.21352 0.881678 -11
      vertex -0.881678 1.21352 -11
    endloop
  endfacet
  facet normal 0 0 -1
    outer loop
      vertex -1.42658 -0.463525 -11
      vertex -0.881678 1.21352 -11
      vertex -0.463525 1.42658 -11
    endloop
  endfacet
  facet normal 0 0 -1
    outer loop
      vertex -1.42658 -0.463525 -11
      vertex -0.463525 1.42658 -11
      vertex 0 1.5 -11
    endloop
  endfacet
  facet normal 0 0 -1
    outer loop
      vertex -1.42658 -0.463525 -11
      vertex 0 1.5 -11
      vertex 0.463525 1.42658 -11
    endloop
  endfacet
  facet normal 0 0 -1
    outer loop
      vertex -1.42658 -0.463525 -11
      vertex 0.463525 1.42658 -11
      vertex 0.881678 1.21352 -11
    endloop
  endfacet
  facet normal 0 0 -1
    outer loop
      vertex -1.42658 -0.463525 -11
      vertex 0.881678 1.21352 -11
      vertex 1.21352 0.881678 -11
    endloop
  endfacet
  facet normal 0 0 -1
    outer loop
      vertex -1.42658 -0.463525 -11
      vertex 1.21352 0.881678 -11
      vertex 1.42658 0.463525 -11
    endloop
  endfacet
  facet normal 0 0 -1
    outer loop
      vertex -1.42658 -0.463525 -11
      vertex 1.42658 0.463525 -11
      vertex 1.5 0 -11
    endloop
  endfacet
  facet normal 0 0 -1
    outer loop
      vertex -1.42658 -0.463525 -11
      vertex 1.5 0 -11
      vertex 1.42658 -0.463525 -11
    endloop
  endfacet
  facet normal 0 0 -1
    outer loop
      vertex -1.42658 -0.463525 -11
      vertex 1.42658 -0.463525 -11
      vertex 1.21352 -0.881678 -11
    endloop
  endfacet
  facet normal 0 0 -1
    outer loop
      vertex -1.42658 -0.463525 -11
      vertex 1.21352 -0.881678 -11
      vertex 0.881678 -1.21352 -11
    endloop
  endfacet
  facet normal 0 0 -1
    outer loop
      vertex -1.42658 -0.463525 -11
      vertex 0.881678 -1.21352 -11
      vertex 0.463525 -1.42658 -11
    endloop
  endfacet
  facet normal 0 0 -1
    outer loop
      vertex -1.42658 -0.463525 -11
      vertex 0.463525 -1.42658 -11
      vertex 0 -1.5 -11
    endloop
  endfacet
  facet normal 0 0 -1
    outer loop
      vertex -1.42658 -0.463525 -11
      vertex 0 -1.5 -11
      vertex -0.463525 -1.42658 -11
    endloop
  endfacet
  facet normal 0 0 -1
    outer loop
      vertex -1.42658 -0.463525 -11
      vertex -0.463525 -1.42658 -11
      vertex -0.881678 -1.21352 -11
    endloop
  endfacet
  facet normal 0 0 -1
    outer loop
      vertex -1.42658 -0.463525 -11
      vertex -0.881678 -1.21352 -11
      vertex -1.21352 -0.881678 -11
    endloop
  endfacet
endsolid OpenSCAD_Model
