solid OpenSCAD_Model
  facet normal 0 0 -1
    outer loop
      vertex -2.4 0 3
      vertex -2.38108 0.3008 3
      vertex -2.38108 -0.3008 3
    endloop
  endfacet
  facet normal 0 0 -1
    outer loop
      vertex -2.38108 -0.3008 3
      vertex -2.38108 0.3008 3
      vertex -2.3246 0.596856 3
    endloop
  endfacet
  facet normal 0 0 -1
    outer loop
      vertex -2.38108 -0.3008 3
      vertex -2.3246 0.596856 3
      vertex -2.23146 0.883499 3
    endloop
  endfacet
  facet normal 0 0 -1
    outer loop
      vertex -2.38108 -0.3008 3
      vertex -2.23146 0.883499 3
      vertex -2.10314 1.15621 3
    endloop
  endfacet
  facet normal 0 0 -1
    outer loop
      vertex -2.38108 -0.3008 3
      vertex -2.10314 1.15621 3
      vertex -1.94164 1.41068 3
    endloop
  endfacet
  facet normal 0 0 -1
    outer loop
      vertex -2.38108 -0.3008 3
      vertex -1.94164 1.41068 3
      vertex -1.74952 1.64291 3
    endloop
  endfacet
  facet normal 0 0 -1
    outer loop
      vertex -2.38108 -0.3008 3
      vertex -1.74952 1.64291 3
      vertex -1.52982 1.84923 3
    endloop
  endfacet
  facet normal 0 0 -1
    outer loop
      vertex -2.38108 -0.3008 3
      vertex -1.52982 1.84923 3
      vertex -1.28598 2.02639 3
    endloop
  endfacet
  facet normal 0 0 -1
    outer loop
      vertex -2.38108 -0.3008 3
      vertex -1.28598 2.02639 3
      vertex -1.02187 2.17158 3
    endloop
  endfacet
  facet normal 0 0 -1
    outer loop
      vertex -2.38108 -0.3008 3
      vertex -1.02187 2.17158 3
      vertex -0.741641 2.28254 3
    endloop
  endfacet
  facet normal 0 0 -1
    outer loop
      vertex -2.38108 -0.3008 3
      vertex -0.741641 2.28254 3
      vertex -0.449715 2.35749 3
    endloop
  endfacet
  facet normal 0 0 -1
    outer loop
      vertex -2.38108 -0.3008 3
      vertex -0.449715 2.35749 3
      vertex -0.150697 2.39526 3
    endloop
  endfacet
  facet normal 0 0 -1
    outer loop
      vertex -2.38108 -0.3008 3
      vertex -0.150697 2.39526 3
      vertex 0.150697 2.39526 3
    endloop
  endfacet
  facet normal 0 0 -1
    outer loop
      vertex -2.38108 -0.3008 3
      vertex 0.150697 2.39526 3
      vertex 0.449715 2.35749 3
    endloop
  endfacet
  facet normal 0 0 -1
    outer loop
      vertex -2.38108 -0.3008 3
      vertex 0.449715 2.35749 3
      vertex 0.741641 2.28254 3
    endloop
  endfacet
  facet normal 0 0 -1
    outer loop
      vertex -2.38108 -0.3008 3
      vertex 0.741641 2.28254 3
      vertex 1.02187 2.17158 3
    endloop
  endfacet
  facet normal 0 0 -1
    outer loop
      vertex -2.38108 -0.3008 3
      vertex 1.02187 2.17158 3
      vertex 1.28598 2.02639 3
    endloop
  endfacet
  facet normal 0 0 -1
    outer loop
      vertex -2.38108 -0.3008 3
      vertex 1.28598 2.02639 3
      vertex 1.52982 1.84923 3
    endloop
  endfacet
  facet normal 0 0 -1
    outer loop
      vertex -0.088849 0.845344 3
      vertex 1.52982 1.84923 3
      vertex 1.74952 1.64291 3
    endloop
  endfacet
  facet normal 0 0 -1
    outer loop
      vertex 0.262664 0.808398 3
      vertex 1.74952 1.64291 3
      vertex 1.94164 1.41068 3
    endloop
  endfacet
  facet normal 0 0 -1
    outer loop
      vertex 0.425 0.736122 3
      vertex 1.94164 1.41068 3
      vertex 2.10314 1.15621 3
    endloop
  endfacet
  facet normal 0 0 -1
    outer loop
      vertex 0.687664 0.499617 3
      vertex 2.10314 1.15621 3
      vertex 2.23146 0.883499 3
    endloop
  endfacet
  facet normal 0 0 -1
    outer loop
      vertex 0.776514 0.345726 3
      vertex 2.23146 0.883499 3
      vertex 2.3246 0.596856 3
    endloop
  endfacet
  facet normal 0 0 -1
    outer loop
      vertex 0.831425 0.176725 3
      vertex 2.3246 0.596856 3
      vertex 2.38108 0.3008 3
    endloop
  endfacet
  facet normal 0 0 -1
    outer loop
      vertex 0.85 0 3
      vertex 2.38108 0.3008 3
      vertex 2.4 0 3
    endloop
  endfacet
  facet normal 0 0 -1
    outer loop
      vertex 0.831425 -0.176725 3
      vertex 2.4 0 3
      vertex 2.38108 -0.3008 3
    endloop
  endfacet
  facet normal 0 0 -1
    outer loop
      vertex 0.776514 -0.345726 3
      vertex 2.38108 -0.3008 3
      vertex 2.3246 -0.596856 3
    endloop
  endfacet
  facet normal 0 0 -1
    outer loop
      vertex 0.568761 -0.631673 3
      vertex 2.3246 -0.596856 3
      vertex 2.23146 -0.883499 3
    endloop
  endfacet
  facet normal 0 0 -1
    outer loop
      vertex 0.425 -0.736122 3
      vertex 2.23146 -0.883499 3
      vertex 2.10314 -1.15621 3
    endloop
  endfacet
  facet normal 0 0 -1
    outer loop
      vertex 0.088849 -0.845344 3
      vertex 2.10314 -1.15621 3
      vertex 1.94164 -1.41068 3
    endloop
  endfacet
  facet normal 0 0 -1
    outer loop
      vertex -2.38108 -0.3008 3
      vertex 1.94164 -1.41068 3
      vertex 1.74952 -1.64291 3
    endloop
  endfacet
  facet normal 0 0 -1
    outer loop
      vertex -2.38108 -0.3008 3
      vertex 1.74952 -1.64291 3
      vertex 1.52982 -1.84923 3
    endloop
  endfacet
  facet normal 0 0 -1
    outer loop
      vertex -2.38108 -0.3008 3
      vertex 1.52982 -1.84923 3
      vertex 1.28598 -2.02639 3
    endloop
  endfacet
  facet normal 0 0 -1
    outer loop
      vertex -2.38108 -0.3008 3
      vertex 1.28598 -2.02639 3
      vertex 1.02187 -2.17158 3
    endloop
  endfacet
  facet normal 0 0 -1
    outer loop
      vertex -2.38108 -0.3008 3
      vertex 1.02187 -2.17158 3
      vertex 0.741641 -2.28254 3
    endloop
  endfacet
  facet normal 0 0 -1
    outer loop
      vertex -2.38108 -0.3008 3
      vertex 0.741641 -2.28254 3
      vertex 0.449715 -2.35749 3
    endloop
  endfacet
  facet normal 0 0 -1
    outer loop
      vertex -2.38108 -0.3008 3
      vertex 0.449715 -2.35749 3
      vertex 0.150697 -2.39526 3
    endloop
  endfacet
  facet normal 0 0 -1
    outer loop
      vertex -2.38108 -0.3008 3
      vertex 0.150697 -2.39526 3
      vertex -0.150697 -2.39526 3
    endloop
  endfacet
  facet normal 0 0 -1
    outer loop
      vertex -2.38108 -0.3008 3
      vertex -0.150697 -2.39526 3
      vertex -0.449715 -2.35749 3
    endloop
  endfacet
  facet normal 0 0 -1
    outer loop
      vertex -2.38108 -0.3008 3
      vertex -0.449715 -2.35749 3
      vertex -0.741641 -2.28254 3
    endloop
  endfacet
  facet normal 0 0 -1
    outer loop
      vertex -2.38108 -0.3008 3
      vertex -0.741641 -2.28254 3
      vertex -1.02187 -2.17158 3
    endloop
  endfacet
  facet normal 0 0 -1
    outer loop
      vertex -2.38108 -0.3008 3
      vertex -1.02187 -2.17158 3
      vertex -1.28598 -2.02639 3
    endloop
  endfacet
  facet normal 0 0 -1
    outer loop
      vertex -2.38108 -0.3008 3
      vertex -1.28598 -2.02639 3
      vertex -1.52982 -1.84923 3
    endloop
  endfacet
  facet normal 0 0 -1
    outer loop
      vertex -2.38108 -0.3008 3
      vertex -1.52982 -1.84923 3
      vertex -1.74952 -1.64291 3
    endloop
  endfacet
  facet normal 0 0 -1
    outer loop
      vertex -2.38108 -0.3008 3
      vertex -1.74952 -1.64291 3
      vertex -1.94164 -1.41068 3
    endloop
  endfacet
  facet normal 0 0 -1
    outer loop
      vertex -2.38108 -0.3008 3
      vertex -1.94164 -1.41068 3
      vertex -2.10314 -1.15621 3
    endloop
  endfacet
  facet normal 0 0 -1
    outer loop
      vertex -2.38108 -0.3008 3
      vertex -2.10314 -1.15621 3
      vertex -2.23146 -0.883499 3
    endloop
  endfacet
  facet normal 0 0 -1
    outer loop
      vertex -2.38108 -0.3008 3
      vertex -2.23146 -0.883499 3
      vertex -2.3246 -0.596856 3
    endloop
  endfacet
  facet normal 0 0 -1
    outer loop
      vertex -0.831425 -0.176725 3
      vertex -2.38108 -0.3008 3
      vertex -0.85 0 3
    endloop
  endfacet
  facet normal 0 0 -1
    outer loop
      vertex -0.776514 -0.345726 3
      vertex -2.38108 -0.3008 3
      vertex -0.831425 -0.176725 3
    endloop
  endfacet
  facet normal 0 0 -1
    outer loop
      vertex -0.687664 -0.499617 3
      vertex -2.38108 -0.3008 3
      vertex -0.776514 -0.345726 3
    endloop
  endfacet
  facet normal 0 0 -1
    outer loop
      vertex 0.776514 -0.345726 3
      vertex 2.3246 -0.596856 3
      vertex 0.687664 -0.499617 3
    endloop
  endfacet
  facet normal 0 0 -1
    outer loop
      vertex -0.425 -0.736122 3
      vertex -2.38108 -0.3008 3
      vertex -0.568761 -0.631673 3
    endloop
  endfacet
  facet normal 0 0 -1
    outer loop
      vertex 0.425 -0.736122 3
      vertex 2.10314 -1.15621 3
      vertex 0.262664 -0.808398 3
    endloop
  endfacet
  facet normal 0 0 -1
    outer loop
      vertex -2.38108 -0.3008 3
      vertex -0.425 -0.736122 3
      vertex -0.262664 -0.808398 3
    endloop
  endfacet
  facet normal 0 0 -1
    outer loop
      vertex -2.38108 -0.3008 3
      vertex -0.262664 -0.808398 3
      vertex 1.94164 -1.41068 3
    endloop
  endfacet
  facet normal 0 0 -1
    outer loop
      vertex -0.262664 -0.808398 3
      vertex -0.088849 -0.845344 3
      vertex 1.94164 -1.41068 3
    endloop
  endfacet
  facet normal 0 0 -1
    outer loop
      vertex 0.262664 -0.808398 3
      vertex 2.10314 -1.15621 3
      vertex 0.088849 -0.845344 3
    endloop
  endfacet
  facet normal 0 0 -1
    outer loop
      vertex 0.088849 -0.845344 3
      vertex 1.94164 -1.41068 3
      vertex -0.088849 -0.845344 3
    endloop
  endfacet
  facet normal 0 0 -1
    outer loop
      vertex 0.568761 -0.631673 3
      vertex 2.23146 -0.883499 3
      vertex 0.425 -0.736122 3
    endloop
  endfacet
  facet normal 0 0 -1
    outer loop
      vertex 0.687664 -0.499617 3
      vertex 2.3246 -0.596856 3
      vertex 0.568761 -0.631673 3
    endloop
  endfacet
  facet normal 0 0 -1
    outer loop
      vertex -0.568761 -0.631673 3
      vertex -2.38108 -0.3008 3
      vertex -0.687664 -0.499617 3
    endloop
  endfacet
  facet normal 0 0 -1
    outer loop
      vertex 0.831425 -0.176725 3
      vertex 2.38108 -0.3008 3
      vertex 0.776514 -0.345726 3
    endloop
  endfacet
  facet normal 0 0 -1
    outer loop
      vertex 0.831425 0.176725 3
      vertex 2.38108 0.3008 3
      vertex 0.85 0 3
    endloop
  endfacet
  facet normal 0 0 -1
    outer loop
      vertex 0.85 0 3
      vertex 2.4 0 3
      vertex 0.831425 -0.176725 3
    endloop
  endfacet
  facet normal 0 0 -1
    outer loop
      vertex 0.687664 0.499617 3
      vertex 2.23146 0.883499 3
      vertex 0.776514 0.345726 3
    endloop
  endfacet
  facet normal 0 0 -1
    outer loop
      vertex 0.568761 0.631673 3
      vertex 2.10314 1.15621 3
      vertex 0.687664 0.499617 3
    endloop
  endfacet
  facet normal 0 0 -1
    outer loop
      vertex 0.262664 0.808398 3
      vertex 1.94164 1.41068 3
      vertex 0.425 0.736122 3
    endloop
  endfacet
  facet normal 0 0 -1
    outer loop
      vertex 0.088849 0.845344 3
      vertex 1.74952 1.64291 3
      vertex 0.262664 0.808398 3
    endloop
  endfacet
  facet normal 0 0 -1
    outer loop
      vertex -0.088849 0.845344 3
      vertex 1.74952 1.64291 3
      vertex 0.088849 0.845344 3
    endloop
  endfacet
  facet normal 0 0 -1
    outer loop
      vertex -0.262664 0.808398 3
      vertex 1.52982 1.84923 3
      vertex -0.088849 0.845344 3
    endloop
  endfacet
  facet normal 0 0 -1
    outer loop
      vertex -0.568761 0.631673 3
      vertex -2.38108 -0.3008 3
      vertex -0.425 0.736122 3
    endloop
  endfacet
  facet normal 0 0 -1
    outer loop
      vertex -0.425 0.736122 3
      vertex 1.52982 1.84923 3
      vertex -0.262664 0.808398 3
    endloop
  endfacet
  facet normal 0 0 -1
    outer loop
      vertex -2.38108 -0.3008 3
      vertex 1.52982 1.84923 3
      vertex -0.425 0.736122 3
    endloop
  endfacet
  facet normal 0 0 -1
    outer loop
      vertex -0.687664 0.499617 3
      vertex -2.38108 -0.3008 3
      vertex -0.568761 0.631673 3
    endloop
  endfacet
  facet normal 0 0 -1
    outer loop
      vertex -0.776514 0.345726 3
      vertex -2.38108 -0.3008 3
      vertex -0.687664 0.499617 3
    endloop
  endfacet
  facet normal 0 0 -1
    outer loop
      vertex -0.831425 0.176725 3
      vertex -2.38108 -0.3008 3
      vertex -0.776514 0.345726 3
    endloop
  endfacet
  facet normal 0 0 -1
    outer loop
      vertex 0.776514 0.345726 3
      vertex 2.3246 0.596856 3
      vertex 0.831425 0.176725 3
    endloop
  endfacet
  facet normal 0 0 -1
    outer loop
      vertex -0.85 0 3
      vertex -2.38108 -0.3008 3
      vertex -0.831425 0.176725 3
    endloop
  endfacet
  facet normal 0 0 -1
    outer loop
      vertex 0.425 0.736122 3
      vertex 2.10314 1.15621 3
      vertex 0.568761 0.631673 3
    endloop
  endfacet
  facet normal -0.998027 0.0627914 0
    outer loop
      vertex -2.4 0 3
      vertex -2.4 0 3.5
      vertex -2.38108 0.3008 3
    endloop
  endfacet
  facet normal -0.998027 0.0627914 0
    outer loop
      vertex -2.38108 0.3008 3
      vertex -2.4 0 3.5
      vertex -2.38108 0.3008 3.5
    endloop
  endfacet
  facet normal -0.998027 -0.0627914 0
    outer loop
      vertex -2.4 0 3
      vertex -2.38108 -0.3008 3
      vertex -2.4 0 3.5
    endloop
  endfacet
  facet normal -0.998027 -0.0627914 0
    outer loop
      vertex -2.4 0 3.5
      vertex -2.38108 -0.3008 3
      vertex -2.38108 -0.3008 3.5
    endloop
  endfacet
  facet normal -0.982288 -0.187379 0
    outer loop
      vertex -2.38108 -0.3008 3
      vertex -2.3246 -0.596856 3
      vertex -2.38108 -0.3008 3.5
    endloop
  endfacet
  facet normal -0.982288 -0.187379 0
    outer loop
      vertex -2.38108 -0.3008 3.5
      vertex -2.3246 -0.596856 3
      vertex -2.3246 -0.596856 3.5
    endloop
  endfacet
  facet normal -0.951056 -0.309017 0
    outer loop
      vertex -2.3246 -0.596856 3
      vertex -2.23146 -0.883499 3
      vertex -2.3246 -0.596856 3.5
    endloop
  endfacet
  facet normal -0.951056 -0.309017 0
    outer loop
      vertex -2.3246 -0.596856 3.5
      vertex -2.23146 -0.883499 3
      vertex -2.23146 -0.883499 3.5
    endloop
  endfacet
  facet normal -0.904827 -0.42578 0
    outer loop
      vertex -2.23146 -0.883499 3
      vertex -2.10314 -1.15621 3
      vertex -2.23146 -0.883499 3.5
    endloop
  endfacet
  facet normal -0.904827 -0.42578 0
    outer loop
      vertex -2.23146 -0.883499 3.5
      vertex -2.10314 -1.15621 3
      vertex -2.10314 -1.15621 3.5
    endloop
  endfacet
  facet normal -0.844328 -0.535826 0
    outer loop
      vertex -2.10314 -1.15621 3
      vertex -1.94164 -1.41068 3
      vertex -2.10314 -1.15621 3.5
    endloop
  endfacet
  facet normal -0.844328 -0.535826 0
    outer loop
      vertex -2.10314 -1.15621 3.5
      vertex -1.94164 -1.41068 3
      vertex -1.94164 -1.41068 3.5
    endloop
  endfacet
  facet normal -0.770513 -0.637425 0
    outer loop
      vertex -1.94164 -1.41068 3
      vertex -1.74952 -1.64291 3
      vertex -1.94164 -1.41068 3.5
    endloop
  endfacet
  facet normal -0.770513 -0.637425 0
    outer loop
      vertex -1.94164 -1.41068 3.5
      vertex -1.74952 -1.64291 3
      vertex -1.74952 -1.64291 3.5
    endloop
  endfacet
  facet normal -0.684548 -0.728968 0
    outer loop
      vertex -1.74952 -1.64291 3.5
      vertex -1.74952 -1.64291 3
      vertex -1.52982 -1.84923 3
    endloop
  endfacet
  facet normal -0.684548 -0.728968 0
    outer loop
      vertex -1.52982 -1.84923 3.5
      vertex -1.74952 -1.64291 3.5
      vertex -1.52982 -1.84923 3
    endloop
  endfacet
  facet normal -0.587784 -0.809018 0
    outer loop
      vertex -1.52982 -1.84923 3.5
      vertex -1.52982 -1.84923 3
      vertex -1.28598 -2.02639 3
    endloop
  endfacet
  facet normal -0.587784 -0.809018 0
    outer loop
      vertex -1.28598 -2.02639 3.5
      vertex -1.52982 -1.84923 3.5
      vertex -1.28598 -2.02639 3
    endloop
  endfacet
  facet normal -0.481754 -0.876307 0
    outer loop
      vertex -1.28598 -2.02639 3.5
      vertex -1.28598 -2.02639 3
      vertex -1.02187 -2.17158 3
    endloop
  endfacet
  facet normal -0.481754 -0.876307 0
    outer loop
      vertex -1.02187 -2.17158 3.5
      vertex -1.28598 -2.02639 3.5
      vertex -1.02187 -2.17158 3
    endloop
  endfacet
  facet normal -0.368126 -0.929776 0
    outer loop
      vertex -1.02187 -2.17158 3.5
      vertex -1.02187 -2.17158 3
      vertex -0.741641 -2.28254 3
    endloop
  endfacet
  facet normal -0.368126 -0.929776 0
    outer loop
      vertex -0.741641 -2.28254 3.5
      vertex -1.02187 -2.17158 3.5
      vertex -0.741641 -2.28254 3
    endloop
  endfacet
  facet normal -0.248687 -0.968584 0
    outer loop
      vertex -0.741641 -2.28254 3.5
      vertex -0.741641 -2.28254 3
      vertex -0.449715 -2.35749 3
    endloop
  endfacet
  facet normal -0.248687 -0.968584 0
    outer loop
      vertex -0.449715 -2.35749 3.5
      vertex -0.741641 -2.28254 3.5
      vertex -0.449715 -2.35749 3
    endloop
  endfacet
  facet normal -0.125334 -0.992115 0
    outer loop
      vertex -0.449715 -2.35749 3.5
      vertex -0.449715 -2.35749 3
      vertex -0.150697 -2.39526 3
    endloop
  endfacet
  facet normal -0.125334 -0.992115 0
    outer loop
      vertex -0.150697 -2.39526 3.5
      vertex -0.449715 -2.35749 3.5
      vertex -0.150697 -2.39526 3
    endloop
  endfacet
  facet normal 0 -1 0
    outer loop
      vertex -0.150697 -2.39526 3.5
      vertex -0.150697 -2.39526 3
      vertex 0.150697 -2.39526 3
    endloop
  endfacet
  facet normal 0 -1 0
    outer loop
      vertex 0.150697 -2.39526 3.5
      vertex -0.150697 -2.39526 3.5
      vertex 0.150697 -2.39526 3
    endloop
  endfacet
  facet normal 0.125334 -0.992115 0
    outer loop
      vertex 0.150697 -2.39526 3.5
      vertex 0.150697 -2.39526 3
      vertex 0.449715 -2.35749 3
    endloop
  endfacet
  facet normal 0.125334 -0.992115 0
    outer loop
      vertex 0.449715 -2.35749 3.5
      vertex 0.150697 -2.39526 3.5
      vertex 0.449715 -2.35749 3
    endloop
  endfacet
  facet normal 0.248687 -0.968584 0
    outer loop
      vertex 0.449715 -2.35749 3.5
      vertex 0.449715 -2.35749 3
      vertex 0.741641 -2.28254 3
    endloop
  endfacet
  facet normal 0.248687 -0.968584 0
    outer loop
      vertex 0.741641 -2.28254 3.5
      vertex 0.449715 -2.35749 3.5
      vertex 0.741641 -2.28254 3
    endloop
  endfacet
  facet normal 0.368126 -0.929776 0
    outer loop
      vertex 0.741641 -2.28254 3.5
      vertex 0.741641 -2.28254 3
      vertex 1.02187 -2.17158 3
    endloop
  endfacet
  facet normal 0.368126 -0.929776 0
    outer loop
      vertex 1.02187 -2.17158 3.5
      vertex 0.741641 -2.28254 3.5
      vertex 1.02187 -2.17158 3
    endloop
  endfacet
  facet normal 0.481754 -0.876307 0
    outer loop
      vertex 1.02187 -2.17158 3.5
      vertex 1.02187 -2.17158 3
      vertex 1.28598 -2.02639 3
    endloop
  endfacet
  facet normal 0.481754 -0.876307 0
    outer loop
      vertex 1.28598 -2.02639 3.5
      vertex 1.02187 -2.17158 3.5
      vertex 1.28598 -2.02639 3
    endloop
  endfacet
  facet normal 0.587784 -0.809018 0
    outer loop
      vertex 1.28598 -2.02639 3.5
      vertex 1.28598 -2.02639 3
      vertex 1.52982 -1.84923 3
    endloop
  endfacet
  facet normal 0.587784 -0.809018 0
    outer loop
      vertex 1.52982 -1.84923 3.5
      vertex 1.28598 -2.02639 3.5
      vertex 1.52982 -1.84923 3
    endloop
  endfacet
  facet normal 0.684548 -0.728968 0
    outer loop
      vertex 1.52982 -1.84923 3.5
      vertex 1.52982 -1.84923 3
      vertex 1.74952 -1.64291 3
    endloop
  endfacet
  facet normal 0.684548 -0.728968 0
    outer loop
      vertex 1.74952 -1.64291 3.5
      vertex 1.52982 -1.84923 3.5
      vertex 1.74952 -1.64291 3
    endloop
  endfacet
  facet normal 0.770513 -0.637425 0
    outer loop
      vertex 1.74952 -1.64291 3.5
      vertex 1.74952 -1.64291 3
      vertex 1.94164 -1.41068 3
    endloop
  endfacet
  facet normal 0.770513 -0.637425 0
    outer loop
      vertex 1.94164 -1.41068 3.5
      vertex 1.74952 -1.64291 3.5
      vertex 1.94164 -1.41068 3
    endloop
  endfacet
  facet normal 0.844328 -0.535826 0
    outer loop
      vertex 1.94164 -1.41068 3.5
      vertex 1.94164 -1.41068 3
      vertex 2.10314 -1.15621 3
    endloop
  endfacet
  facet normal 0.844328 -0.535826 0
    outer loop
      vertex 2.10314 -1.15621 3.5
      vertex 1.94164 -1.41068 3.5
      vertex 2.10314 -1.15621 3
    endloop
  endfacet
  facet normal 0.904827 -0.42578 0
    outer loop
      vertex 2.10314 -1.15621 3.5
      vertex 2.10314 -1.15621 3
      vertex 2.23146 -0.883499 3
    endloop
  endfacet
  facet normal 0.904827 -0.42578 0
    outer loop
      vertex 2.23146 -0.883499 3.5
      vertex 2.10314 -1.15621 3.5
      vertex 2.23146 -0.883499 3
    endloop
  endfacet
  facet normal 0.951056 -0.309017 0
    outer loop
      vertex 2.23146 -0.883499 3.5
      vertex 2.23146 -0.883499 3
      vertex 2.3246 -0.596856 3
    endloop
  endfacet
  facet normal 0.951056 -0.309017 0
    outer loop
      vertex 2.3246 -0.596856 3.5
      vertex 2.23146 -0.883499 3.5
      vertex 2.3246 -0.596856 3
    endloop
  endfacet
  facet normal 0.982288 -0.187379 0
    outer loop
      vertex 2.3246 -0.596856 3.5
      vertex 2.3246 -0.596856 3
      vertex 2.38108 -0.3008 3
    endloop
  endfacet
  facet normal 0.982288 -0.187379 0
    outer loop
      vertex 2.38108 -0.3008 3.5
      vertex 2.3246 -0.596856 3.5
      vertex 2.38108 -0.3008 3
    endloop
  endfacet
  facet normal 0.998027 -0.0627914 0
    outer loop
      vertex 2.38108 -0.3008 3.5
      vertex 2.38108 -0.3008 3
      vertex 2.4 0 3
    endloop
  endfacet
  facet normal 0.998027 -0.0627914 0
    outer loop
      vertex 2.4 0 3.5
      vertex 2.38108 -0.3008 3.5
      vertex 2.4 0 3
    endloop
  endfacet
  facet normal 0.998027 0.0627914 0
    outer loop
      vertex 2.4 0 3
      vertex 2.38108 0.3008 3
      vertex 2.38108 0.3008 3.5
    endloop
  endfacet
  facet normal 0.998027 0.0627914 0
    outer loop
      vertex 2.4 0 3.5
      vertex 2.4 0 3
      vertex 2.38108 0.3008 3.5
    endloop
  endfacet
  facet normal 0.982288 0.187379 0
    outer loop
      vertex 2.38108 0.3008 3
      vertex 2.3246 0.596856 3
      vertex 2.3246 0.596856 3.5
    endloop
  endfacet
  facet normal 0.982288 0.187379 0
    outer loop
      vertex 2.38108 0.3008 3.5
      vertex 2.38108 0.3008 3
      vertex 2.3246 0.596856 3.5
    endloop
  endfacet
  facet normal 0.951056 0.309017 0
    outer loop
      vertex 2.3246 0.596856 3
      vertex 2.23146 0.883499 3
      vertex 2.23146 0.883499 3.5
    endloop
  endfacet
  facet normal 0.951056 0.309017 0
    outer loop
      vertex 2.3246 0.596856 3.5
      vertex 2.3246 0.596856 3
      vertex 2.23146 0.883499 3.5
    endloop
  endfacet
  facet normal 0.904827 0.42578 0
    outer loop
      vertex 2.23146 0.883499 3
      vertex 2.10314 1.15621 3
      vertex 2.10314 1.15621 3.5
    endloop
  endfacet
  facet normal 0.904827 0.42578 0
    outer loop
      vertex 2.23146 0.883499 3.5
      vertex 2.23146 0.883499 3
      vertex 2.10314 1.15621 3.5
    endloop
  endfacet
  facet normal 0.844328 0.535826 0
    outer loop
      vertex 2.10314 1.15621 3
      vertex 1.94164 1.41068 3
      vertex 1.94164 1.41068 3.5
    endloop
  endfacet
  facet normal 0.844328 0.535826 0
    outer loop
      vertex 2.10314 1.15621 3.5
      vertex 2.10314 1.15621 3
      vertex 1.94164 1.41068 3.5
    endloop
  endfacet
  facet normal 0.770513 0.637425 0
    outer loop
      vertex 1.94164 1.41068 3
      vertex 1.74952 1.64291 3
      vertex 1.74952 1.64291 3.5
    endloop
  endfacet
  facet normal 0.770513 0.637425 0
    outer loop
      vertex 1.94164 1.41068 3.5
      vertex 1.94164 1.41068 3
      vertex 1.74952 1.64291 3.5
    endloop
  endfacet
  facet normal 0.684548 0.728968 0
    outer loop
      vertex 1.52982 1.84923 3
      vertex 1.52982 1.84923 3.5
      vertex 1.74952 1.64291 3
    endloop
  endfacet
  facet normal 0.684548 0.728968 0
    outer loop
      vertex 1.74952 1.64291 3
      vertex 1.52982 1.84923 3.5
      vertex 1.74952 1.64291 3.5
    endloop
  endfacet
  facet normal 0.587784 0.809018 0
    outer loop
      vertex 1.28598 2.02639 3
      vertex 1.28598 2.02639 3.5
      vertex 1.52982 1.84923 3
    endloop
  endfacet
  facet normal 0.587784 0.809018 0
    outer loop
      vertex 1.52982 1.84923 3
      vertex 1.28598 2.02639 3.5
      vertex 1.52982 1.84923 3.5
    endloop
  endfacet
  facet normal 0.481754 0.876307 0
    outer loop
      vertex 1.02187 2.17158 3
      vertex 1.02187 2.17158 3.5
      vertex 1.28598 2.02639 3
    endloop
  endfacet
  facet normal 0.481754 0.876307 0
    outer loop
      vertex 1.28598 2.02639 3
      vertex 1.02187 2.17158 3.5
      vertex 1.28598 2.02639 3.5
    endloop
  endfacet
  facet normal 0.368126 0.929776 0
    outer loop
      vertex 0.741641 2.28254 3
      vertex 0.741641 2.28254 3.5
      vertex 1.02187 2.17158 3
    endloop
  endfacet
  facet normal 0.368126 0.929776 0
    outer loop
      vertex 1.02187 2.17158 3
      vertex 0.741641 2.28254 3.5
      vertex 1.02187 2.17158 3.5
    endloop
  endfacet
  facet normal 0.248687 0.968584 0
    outer loop
      vertex 0.449715 2.35749 3
      vertex 0.449715 2.35749 3.5
      vertex 0.741641 2.28254 3
    endloop
  endfacet
  facet normal 0.248687 0.968584 0
    outer loop
      vertex 0.741641 2.28254 3
      vertex 0.449715 2.35749 3.5
      vertex 0.741641 2.28254 3.5
    endloop
  endfacet
  facet normal 0.125334 0.992115 0
    outer loop
      vertex 0.150697 2.39526 3
      vertex 0.150697 2.39526 3.5
      vertex 0.449715 2.35749 3
    endloop
  endfacet
  facet normal 0.125334 0.992115 0
    outer loop
      vertex 0.449715 2.35749 3
      vertex 0.150697 2.39526 3.5
      vertex 0.449715 2.35749 3.5
    endloop
  endfacet
  facet normal 0 1 0
    outer loop
      vertex -0.150697 2.39526 3
      vertex -0.150697 2.39526 3.5
      vertex 0.150697 2.39526 3
    endloop
  endfacet
  facet normal 0 1 0
    outer loop
      vertex 0.150697 2.39526 3
      vertex -0.150697 2.39526 3.5
      vertex 0.150697 2.39526 3.5
    endloop
  endfacet
  facet normal -0.125334 0.992115 0
    outer loop
      vertex -0.449715 2.35749 3
      vertex -0.449715 2.35749 3.5
      vertex -0.150697 2.39526 3
    endloop
  endfacet
  facet normal -0.125334 0.992115 0
    outer loop
      vertex -0.150697 2.39526 3
      vertex -0.449715 2.35749 3.5
      vertex -0.150697 2.39526 3.5
    endloop
  endfacet
  facet normal -0.248687 0.968584 0
    outer loop
      vertex -0.741641 2.28254 3
      vertex -0.741641 2.28254 3.5
      vertex -0.449715 2.35749 3
    endloop
  endfacet
  facet normal -0.248687 0.968584 0
    outer loop
      vertex -0.449715 2.35749 3
      vertex -0.741641 2.28254 3.5
      vertex -0.449715 2.35749 3.5
    endloop
  endfacet
  facet normal -0.368126 0.929776 0
    outer loop
      vertex -1.02187 2.17158 3
      vertex -1.02187 2.17158 3.5
      vertex -0.741641 2.28254 3
    endloop
  endfacet
  facet normal -0.368126 0.929776 0
    outer loop
      vertex -0.741641 2.28254 3
      vertex -1.02187 2.17158 3.5
      vertex -0.741641 2.28254 3.5
    endloop
  endfacet
  facet normal -0.481754 0.876307 0
    outer loop
      vertex -1.28598 2.02639 3
      vertex -1.28598 2.02639 3.5
      vertex -1.02187 2.17158 3
    endloop
  endfacet
  facet normal -0.481754 0.876307 0
    outer loop
      vertex -1.02187 2.17158 3
      vertex -1.28598 2.02639 3.5
      vertex -1.02187 2.17158 3.5
    endloop
  endfacet
  facet normal -0.587784 0.809018 0
    outer loop
      vertex -1.52982 1.84923 3
      vertex -1.52982 1.84923 3.5
      vertex -1.28598 2.02639 3
    endloop
  endfacet
  facet normal -0.587784 0.809018 0
    outer loop
      vertex -1.28598 2.02639 3
      vertex -1.52982 1.84923 3.5
      vertex -1.28598 2.02639 3.5
    endloop
  endfacet
  facet normal -0.684548 0.728968 0
    outer loop
      vertex -1.74952 1.64291 3
      vertex -1.74952 1.64291 3.5
      vertex -1.52982 1.84923 3
    endloop
  endfacet
  facet normal -0.684548 0.728968 0
    outer loop
      vertex -1.52982 1.84923 3
      vertex -1.74952 1.64291 3.5
      vertex -1.52982 1.84923 3.5
    endloop
  endfacet
  facet normal -0.770513 0.637425 0
    outer loop
      vertex -1.94164 1.41068 3
      vertex -1.94164 1.41068 3.5
      vertex -1.74952 1.64291 3
    endloop
  endfacet
  facet normal -0.770513 0.637425 0
    outer loop
      vertex -1.74952 1.64291 3
      vertex -1.94164 1.41068 3.5
      vertex -1.74952 1.64291 3.5
    endloop
  endfacet
  facet normal -0.844328 0.535826 0
    outer loop
      vertex -2.10314 1.15621 3
      vertex -2.10314 1.15621 3.5
      vertex -1.94164 1.41068 3
    endloop
  endfacet
  facet normal -0.844328 0.535826 0
    outer loop
      vertex -1.94164 1.41068 3
      vertex -2.10314 1.15621 3.5
      vertex -1.94164 1.41068 3.5
    endloop
  endfacet
  facet normal -0.904827 0.42578 0
    outer loop
      vertex -2.23146 0.883499 3
      vertex -2.23146 0.883499 3.5
      vertex -2.10314 1.15621 3
    endloop
  endfacet
  facet normal -0.904827 0.42578 0
    outer loop
      vertex -2.10314 1.15621 3
      vertex -2.23146 0.883499 3.5
      vertex -2.10314 1.15621 3.5
    endloop
  endfacet
  facet normal -0.951056 0.309017 0
    outer loop
      vertex -2.3246 0.596856 3
      vertex -2.3246 0.596856 3.5
      vertex -2.23146 0.883499 3
    endloop
  endfacet
  facet normal -0.951056 0.309017 0
    outer loop
      vertex -2.23146 0.883499 3
      vertex -2.3246 0.596856 3.5
      vertex -2.23146 0.883499 3.5
    endloop
  endfacet
  facet normal -0.982288 0.187379 0
    outer loop
      vertex -2.38108 0.3008 3
      vertex -2.38108 0.3008 3.5
      vertex -2.3246 0.596856 3
    endloop
  endfacet
  facet normal -0.982288 0.187379 0
    outer loop
      vertex -2.3246 0.596856 3
      vertex -2.38108 0.3008 3.5
      vertex -2.3246 0.596856 3.5
    endloop
  endfacet
  facet normal -0.994522 0.104531 0
    outer loop
      vertex -0.85 0 -3.6
      vertex -0.85 0 3
      vertex -0.831425 0.176725 -3.6
    endloop
  endfacet
  facet normal -0.994522 0.104531 0
    outer loop
      vertex -0.831425 0.176725 -3.6
      vertex -0.85 0 3
      vertex -0.831425 0.176725 3
    endloop
  endfacet
  facet normal -0.994522 -0.104531 0
    outer loop
      vertex -0.85 0 -3.6
      vertex -0.831425 -0.176725 -3.6
      vertex -0.85 0 3
    endloop
  endfacet
  facet normal -0.994522 -0.104531 0
    outer loop
      vertex -0.85 0 3
      vertex -0.831425 -0.176725 -3.6
      vertex -0.831425 -0.176725 3
    endloop
  endfacet
  facet normal -0.951058 0.309013 0
    outer loop
      vertex -0.831425 0.176725 -3.6
      vertex -0.831425 0.176725 3
      vertex -0.776514 0.345726 -3.6
    endloop
  endfacet
  facet normal -0.951058 0.309013 0
    outer loop
      vertex -0.776514 0.345726 -3.6
      vertex -0.831425 0.176725 3
      vertex -0.776514 0.345726 3
    endloop
  endfacet
  facet normal -0.866023 0.500004 0
    outer loop
      vertex -0.776514 0.345726 -3.6
      vertex -0.776514 0.345726 3
      vertex -0.687664 0.499617 -3.6
    endloop
  endfacet
  facet normal -0.866023 0.500004 0
    outer loop
      vertex -0.687664 0.499617 -3.6
      vertex -0.776514 0.345726 3
      vertex -0.687664 0.499617 3
    endloop
  endfacet
  facet normal -0.743147 0.669128 0
    outer loop
      vertex -0.687664 0.499617 -3.6
      vertex -0.687664 0.499617 3
      vertex -0.568761 0.631673 -3.6
    endloop
  endfacet
  facet normal -0.743147 0.669128 0
    outer loop
      vertex -0.568761 0.631673 -3.6
      vertex -0.687664 0.499617 3
      vertex -0.568761 0.631673 3
    endloop
  endfacet
  facet normal -0.587787 0.809016 0
    outer loop
      vertex -0.568761 0.631673 -3.6
      vertex -0.568761 0.631673 3
      vertex -0.425 0.736122 -3.6
    endloop
  endfacet
  facet normal -0.587787 0.809016 0
    outer loop
      vertex -0.425 0.736122 -3.6
      vertex -0.568761 0.631673 3
      vertex -0.425 0.736122 3
    endloop
  endfacet
  facet normal -0.406734 0.913547 0
    outer loop
      vertex -0.425 0.736122 -3.6
      vertex -0.425 0.736122 3
      vertex -0.262664 0.808398 -3.6
    endloop
  endfacet
  facet normal -0.406734 0.913547 0
    outer loop
      vertex -0.262664 0.808398 -3.6
      vertex -0.425 0.736122 3
      vertex -0.262664 0.808398 3
    endloop
  endfacet
  facet normal -0.207914 0.978147 0
    outer loop
      vertex -0.262664 0.808398 -3.6
      vertex -0.262664 0.808398 3
      vertex -0.088849 0.845344 -3.6
    endloop
  endfacet
  facet normal -0.207914 0.978147 0
    outer loop
      vertex -0.088849 0.845344 -3.6
      vertex -0.262664 0.808398 3
      vertex -0.088849 0.845344 3
    endloop
  endfacet
  facet normal 0 1 0
    outer loop
      vertex -0.088849 0.845344 -3.6
      vertex -0.088849 0.845344 3
      vertex 0.088849 0.845344 -3.6
    endloop
  endfacet
  facet normal 0 1 0
    outer loop
      vertex 0.088849 0.845344 -3.6
      vertex -0.088849 0.845344 3
      vertex 0.088849 0.845344 3
    endloop
  endfacet
  facet normal 0.207914 0.978147 0
    outer loop
      vertex 0.088849 0.845344 -3.6
      vertex 0.088849 0.845344 3
      vertex 0.262664 0.808398 -3.6
    endloop
  endfacet
  facet normal 0.207914 0.978147 0
    outer loop
      vertex 0.262664 0.808398 -3.6
      vertex 0.088849 0.845344 3
      vertex 0.262664 0.808398 3
    endloop
  endfacet
  facet normal 0.406734 0.913547 0
    outer loop
      vertex 0.262664 0.808398 -3.6
      vertex 0.262664 0.808398 3
      vertex 0.425 0.736122 -3.6
    endloop
  endfacet
  facet normal 0.406734 0.913547 0
    outer loop
      vertex 0.425 0.736122 -3.6
      vertex 0.262664 0.808398 3
      vertex 0.425 0.736122 3
    endloop
  endfacet
  facet normal 0.587787 0.809016 0
    outer loop
      vertex 0.425 0.736122 -3.6
      vertex 0.425 0.736122 3
      vertex 0.568761 0.631673 -3.6
    endloop
  endfacet
  facet normal 0.587787 0.809016 0
    outer loop
      vertex 0.568761 0.631673 -3.6
      vertex 0.425 0.736122 3
      vertex 0.568761 0.631673 3
    endloop
  endfacet
  facet normal 0.743147 0.669128 0
    outer loop
      vertex 0.687664 0.499617 -3.6
      vertex 0.568761 0.631673 -3.6
      vertex 0.568761 0.631673 3
    endloop
  endfacet
  facet normal 0.743147 0.669128 0
    outer loop
      vertex 0.687664 0.499617 3
      vertex 0.687664 0.499617 -3.6
      vertex 0.568761 0.631673 3
    endloop
  endfacet
  facet normal 0.866023 0.500004 0
    outer loop
      vertex 0.776514 0.345726 -3.6
      vertex 0.687664 0.499617 -3.6
      vertex 0.687664 0.499617 3
    endloop
  endfacet
  facet normal 0.866023 0.500004 0
    outer loop
      vertex 0.776514 0.345726 3
      vertex 0.776514 0.345726 -3.6
      vertex 0.687664 0.499617 3
    endloop
  endfacet
  facet normal 0.951058 0.309013 0
    outer loop
      vertex 0.831425 0.176725 -3.6
      vertex 0.776514 0.345726 -3.6
      vertex 0.776514 0.345726 3
    endloop
  endfacet
  facet normal 0.951058 0.309013 0
    outer loop
      vertex 0.831425 0.176725 3
      vertex 0.831425 0.176725 -3.6
      vertex 0.776514 0.345726 3
    endloop
  endfacet
  facet normal 0.994522 0.104531 0
    outer loop
      vertex 0.85 0 -3.6
      vertex 0.831425 0.176725 -3.6
      vertex 0.831425 0.176725 3
    endloop
  endfacet
  facet normal 0.994522 0.104531 0
    outer loop
      vertex 0.85 0 3
      vertex 0.85 0 -3.6
      vertex 0.831425 0.176725 3
    endloop
  endfacet
  facet normal 0.994522 -0.104531 0
    outer loop
      vertex 0.831425 -0.176725 3
      vertex 0.831425 -0.176725 -3.6
      vertex 0.85 0 -3.6
    endloop
  endfacet
  facet normal 0.994522 -0.104531 0
    outer loop
      vertex 0.85 0 3
      vertex 0.831425 -0.176725 3
      vertex 0.85 0 -3.6
    endloop
  endfacet
  facet normal 0.951058 -0.309013 0
    outer loop
      vertex 0.776514 -0.345726 3
      vertex 0.776514 -0.345726 -3.6
      vertex 0.831425 -0.176725 -3.6
    endloop
  endfacet
  facet normal 0.951058 -0.309013 0
    outer loop
      vertex 0.831425 -0.176725 3
      vertex 0.776514 -0.345726 3
      vertex 0.831425 -0.176725 -3.6
    endloop
  endfacet
  facet normal 0.866023 -0.500004 0
    outer loop
      vertex 0.687664 -0.499617 3
      vertex 0.687664 -0.499617 -3.6
      vertex 0.776514 -0.345726 -3.6
    endloop
  endfacet
  facet normal 0.866023 -0.500004 0
    outer loop
      vertex 0.776514 -0.345726 3
      vertex 0.687664 -0.499617 3
      vertex 0.776514 -0.345726 -3.6
    endloop
  endfacet
  facet normal 0.743147 -0.669128 0
    outer loop
      vertex 0.568761 -0.631673 3
      vertex 0.568761 -0.631673 -3.6
      vertex 0.687664 -0.499617 -3.6
    endloop
  endfacet
  facet normal 0.743147 -0.669128 0
    outer loop
      vertex 0.687664 -0.499617 3
      vertex 0.568761 -0.631673 3
      vertex 0.687664 -0.499617 -3.6
    endloop
  endfacet
  facet normal 0.587787 -0.809016 0
    outer loop
      vertex 0.425 -0.736122 3
      vertex 0.425 -0.736122 -3.6
      vertex 0.568761 -0.631673 -3.6
    endloop
  endfacet
  facet normal 0.587787 -0.809016 0
    outer loop
      vertex 0.568761 -0.631673 3
      vertex 0.425 -0.736122 3
      vertex 0.568761 -0.631673 -3.6
    endloop
  endfacet
  facet normal 0.406734 -0.913547 0
    outer loop
      vertex 0.262664 -0.808398 3
      vertex 0.262664 -0.808398 -3.6
      vertex 0.425 -0.736122 -3.6
    endloop
  endfacet
  facet normal 0.406734 -0.913547 0
    outer loop
      vertex 0.425 -0.736122 3
      vertex 0.262664 -0.808398 3
      vertex 0.425 -0.736122 -3.6
    endloop
  endfacet
  facet normal 0.207914 -0.978147 0
    outer loop
      vertex 0.088849 -0.845344 3
      vertex 0.088849 -0.845344 -3.6
      vertex 0.262664 -0.808398 -3.6
    endloop
  endfacet
  facet normal 0.207914 -0.978147 0
    outer loop
      vertex 0.262664 -0.808398 3
      vertex 0.088849 -0.845344 3
      vertex 0.262664 -0.808398 -3.6
    endloop
  endfacet
  facet normal 0 -1 0
    outer loop
      vertex -0.088849 -0.845344 3
      vertex -0.088849 -0.845344 -3.6
      vertex 0.088849 -0.845344 -3.6
    endloop
  endfacet
  facet normal 0 -1 0
    outer loop
      vertex 0.088849 -0.845344 3
      vertex -0.088849 -0.845344 3
      vertex 0.088849 -0.845344 -3.6
    endloop
  endfacet
  facet normal -0.207914 -0.978147 0
    outer loop
      vertex -0.262664 -0.808398 3
      vertex -0.262664 -0.808398 -3.6
      vertex -0.088849 -0.845344 -3.6
    endloop
  endfacet
  facet normal -0.207914 -0.978147 0
    outer loop
      vertex -0.088849 -0.845344 3
      vertex -0.262664 -0.808398 3
      vertex -0.088849 -0.845344 -3.6
    endloop
  endfacet
  facet normal -0.406734 -0.913547 0
    outer loop
      vertex -0.425 -0.736122 3
      vertex -0.425 -0.736122 -3.6
      vertex -0.262664 -0.808398 -3.6
    endloop
  endfacet
  facet normal -0.406734 -0.913547 0
    outer loop
      vertex -0.262664 -0.808398 3
      vertex -0.425 -0.736122 3
      vertex -0.262664 -0.808398 -3.6
    endloop
  endfacet
  facet normal -0.587787 -0.809016 0
    outer loop
      vertex -0.568761 -0.631673 3
      vertex -0.568761 -0.631673 -3.6
      vertex -0.425 -0.736122 -3.6
    endloop
  endfacet
  facet normal -0.587787 -0.809016 0
    outer loop
      vertex -0.425 -0.736122 3
      vertex -0.568761 -0.631673 3
      vertex -0.425 -0.736122 -3.6
    endloop
  endfacet
  facet normal -0.743147 -0.669128 0
    outer loop
      vertex -0.687664 -0.499617 -3.6
      vertex -0.568761 -0.631673 -3.6
      vertex -0.687664 -0.499617 3
    endloop
  endfacet
  facet normal -0.743147 -0.669128 0
    outer loop
      vertex -0.687664 -0.499617 3
      vertex -0.568761 -0.631673 -3.6
      vertex -0.568761 -0.631673 3
    endloop
  endfacet
  facet normal -0.866023 -0.500004 0
    outer loop
      vertex -0.776514 -0.345726 -3.6
      vertex -0.687664 -0.499617 -3.6
      vertex -0.776514 -0.345726 3
    endloop
  endfacet
  facet normal -0.866023 -0.500004 0
    outer loop
      vertex -0.776514 -0.345726 3
      vertex -0.687664 -0.499617 -3.6
      vertex -0.687664 -0.499617 3
    endloop
  endfacet
  facet normal -0.951058 -0.309013 0
    outer loop
      vertex -0.831425 -0.176725 -3.6
      vertex -0.776514 -0.345726 -3.6
      vertex -0.831425 -0.176725 3
    endloop
  endfacet
  facet normal -0.951058 -0.309013 0
    outer loop
      vertex -0.831425 -0.176725 3
      vertex -0.776514 -0.345726 -3.6
      vertex -0.776514 -0.345726 3
    endloop
  endfacet
  facet normal 0 0 1
    outer loop
      vertex -2.38108 -0.3008 3.5
      vertex -2.3246 -0.596856 3.5
      vertex -2.23146 -0.883499 3.5
    endloop
  endfacet
  facet normal 0 0 1
    outer loop
      vertex -1.94164 -1.41068 3.5
      vertex -2.38108 -0.3008 3.5
      vertex -2.10314 -1.15621 3.5
    endloop
  endfacet
  facet normal 0 0 1
    outer loop
      vertex -2.10314 -1.15621 3.5
      vertex -2.38108 -0.3008 3.5
      vertex -2.23146 -0.883499 3.5
    endloop
  endfacet
  facet normal 0 0 1
    outer loop
      vertex -1.74952 -1.64291 3.5
      vertex -2.38108 -0.3008 3.5
      vertex -1.94164 -1.41068 3.5
    endloop
  endfacet
  facet normal 0 0 1
    outer loop
      vertex -1.52982 -1.84923 3.5
      vertex -2.38108 -0.3008 3.5
      vertex -1.74952 -1.64291 3.5
    endloop
  endfacet
  facet normal 0 0 1
    outer loop
      vertex -1.28598 -2.02639 3.5
      vertex -2.38108 -0.3008 3.5
      vertex -1.52982 -1.84923 3.5
    endloop
  endfacet
  facet normal 0 0 1
    outer loop
      vertex -1.02187 -2.17158 3.5
      vertex -2.38108 -0.3008 3.5
      vertex -1.28598 -2.02639 3.5
    endloop
  endfacet
  facet normal 0 0 1
    outer loop
      vertex -0.741641 -2.28254 3.5
      vertex -2.38108 -0.3008 3.5
      vertex -1.02187 -2.17158 3.5
    endloop
  endfacet
  facet normal 0 0 1
    outer loop
      vertex -0.449715 -2.35749 3.5
      vertex -2.38108 -0.3008 3.5
      vertex -0.741641 -2.28254 3.5
    endloop
  endfacet
  facet normal 0 0 1
    outer loop
      vertex -0.150697 -2.39526 3.5
      vertex -2.38108 -0.3008 3.5
      vertex -0.449715 -2.35749 3.5
    endloop
  endfacet
  facet normal 0 0 1
    outer loop
      vertex 0.150697 -2.39526 3.5
      vertex -2.38108 -0.3008 3.5
      vertex -0.150697 -2.39526 3.5
    endloop
  endfacet
  facet normal 0 0 1
    outer loop
      vertex -1.08362 -1.30987 3.5
      vertex -2.38108 -0.3008 3.5
      vertex 0.150697 -2.39526 3.5
    endloop
  endfacet
  facet normal 0 0 1
    outer loop
      vertex -1.08362 -1.30987 3.5
      vertex -1.23925 -1.16373 3.5
      vertex -2.38108 -0.3008 3.5
    endloop
  endfacet
  facet normal 0 0 1
    outer loop
      vertex -0.525329 -1.6168 3.5
      vertex -0.723825 -1.53821 3.5
      vertex 0.449715 -2.35749 3.5
    endloop
  endfacet
  facet normal 0 0 1
    outer loop
      vertex -0.106744 -1.69664 3.5
      vertex -0.318548 -1.66989 3.5
      vertex 0.741641 -2.28254 3.5
    endloop
  endfacet
  facet normal 0 0 1
    outer loop
      vertex 0.318548 -1.66989 3.5
      vertex 0.106744 -1.69664 3.5
      vertex 1.02187 -2.17158 3.5
    endloop
  endfacet
  facet normal 0 0 1
    outer loop
      vertex 0.525329 -1.6168 3.5
      vertex 0.318548 -1.66989 3.5
      vertex 1.28598 -2.02639 3.5
    endloop
  endfacet
  facet normal 0 0 1
    outer loop
      vertex 0.910906 -1.43536 3.5
      vertex 0.723825 -1.53821 3.5
      vertex 1.52982 -1.84923 3.5
    endloop
  endfacet
  facet normal 0 0 1
    outer loop
      vertex 1.08362 -1.30987 3.5
      vertex 0.910906 -1.43536 3.5
      vertex 1.74952 -1.64291 3.5
    endloop
  endfacet
  facet normal 0 0 1
    outer loop
      vertex 1.23925 -1.16373 3.5
      vertex 1.08362 -1.30987 3.5
      vertex 1.94164 -1.41068 3.5
    endloop
  endfacet
  facet normal 0 0 1
    outer loop
      vertex 1.37533 -0.999235 3.5
      vertex 1.23925 -1.16373 3.5
      vertex 2.10314 -1.15621 3.5
    endloop
  endfacet
  facet normal 0 0 1
    outer loop
      vertex 1.58062 -0.625812 3.5
      vertex 1.48972 -0.818981 3.5
      vertex 2.23146 -0.883499 3.5
    endloop
  endfacet
  facet normal 0 0 1
    outer loop
      vertex 1.64659 -0.422773 3.5
      vertex 1.58062 -0.625812 3.5
      vertex 2.3246 -0.596856 3.5
    endloop
  endfacet
  facet normal 0 0 1
    outer loop
      vertex 1.68659 -0.213066 3.5
      vertex 1.64659 -0.422773 3.5
      vertex 2.38108 -0.3008 3.5
    endloop
  endfacet
  facet normal 0 0 1
    outer loop
      vertex 1.7 0 3.5
      vertex 1.68659 -0.213066 3.5
      vertex 2.4 0 3.5
    endloop
  endfacet
  facet normal 0 0 1
    outer loop
      vertex 1.23925 1.16373 3.5
      vertex 1.37533 0.999235 3.5
      vertex 1.94164 1.41068 3.5
    endloop
  endfacet
  facet normal 0 0 1
    outer loop
      vertex -1.64659 -0.422773 3.5
      vertex -1.68659 -0.213066 3.5
      vertex -2.38108 -0.3008 3.5
    endloop
  endfacet
  facet normal 0 0 1
    outer loop
      vertex 0.318548 1.66989 3.5
      vertex 0.525329 1.6168 3.5
      vertex 1.02187 2.17158 3.5
    endloop
  endfacet
  facet normal 0 0 1
    outer loop
      vertex -1.08362 1.30987 3.5
      vertex -0.910906 1.43536 3.5
      vertex -0.150697 2.39526 3.5
    endloop
  endfacet
  facet normal 0 0 1
    outer loop
      vertex -0.318548 1.66989 3.5
      vertex -0.106744 1.69664 3.5
      vertex 0.449715 2.35749 3.5
    endloop
  endfacet
  facet normal 0 0 1
    outer loop
      vertex -0.741641 2.28254 3.5
      vertex -2.38108 -0.3008 3.5
      vertex -0.449715 2.35749 3.5
    endloop
  endfacet
  facet normal 0 0 1
    outer loop
      vertex -1.02187 2.17158 3.5
      vertex -2.38108 -0.3008 3.5
      vertex -0.741641 2.28254 3.5
    endloop
  endfacet
  facet normal 0 0 1
    outer loop
      vertex -1.28598 2.02639 3.5
      vertex -2.38108 -0.3008 3.5
      vertex -1.02187 2.17158 3.5
    endloop
  endfacet
  facet normal 0 0 1
    outer loop
      vertex -1.52982 1.84923 3.5
      vertex -2.38108 -0.3008 3.5
      vertex -1.28598 2.02639 3.5
    endloop
  endfacet
  facet normal 0 0 1
    outer loop
      vertex -1.74952 1.64291 3.5
      vertex -2.38108 -0.3008 3.5
      vertex -1.52982 1.84923 3.5
    endloop
  endfacet
  facet normal 0 0 1
    outer loop
      vertex -1.94164 1.41068 3.5
      vertex -2.38108 -0.3008 3.5
      vertex -1.74952 1.64291 3.5
    endloop
  endfacet
  facet normal 0 0 1
    outer loop
      vertex -2.10314 1.15621 3.5
      vertex -2.38108 -0.3008 3.5
      vertex -1.94164 1.41068 3.5
    endloop
  endfacet
  facet normal 0 0 1
    outer loop
      vertex -2.23146 0.883499 3.5
      vertex -2.38108 -0.3008 3.5
      vertex -2.10314 1.15621 3.5
    endloop
  endfacet
  facet normal 0 0 1
    outer loop
      vertex -2.3246 0.596856 3.5
      vertex -2.38108 -0.3008 3.5
      vertex -2.23146 0.883499 3.5
    endloop
  endfacet
  facet normal 0 0 1
    outer loop
      vertex -2.38108 0.3008 3.5
      vertex -2.38108 -0.3008 3.5
      vertex -2.3246 0.596856 3.5
    endloop
  endfacet
  facet normal 0 0 1
    outer loop
      vertex -2.4 0 3.5
      vertex -2.38108 -0.3008 3.5
      vertex -2.38108 0.3008 3.5
    endloop
  endfacet
  facet normal 0 0 1
    outer loop
      vertex 1.37533 0.999235 3.5
      vertex 1.48972 0.818981 3.5
      vertex 2.10314 1.15621 3.5
    endloop
  endfacet
  facet normal 0 0 1
    outer loop
      vertex 0.525329 1.6168 3.5
      vertex 0.723825 1.53821 3.5
      vertex 1.28598 2.02639 3.5
    endloop
  endfacet
  facet normal 0 0 1
    outer loop
      vertex -1.48972 -0.818981 3.5
      vertex -1.58062 -0.625812 3.5
      vertex -2.38108 -0.3008 3.5
    endloop
  endfacet
  facet normal 0 0 1
    outer loop
      vertex -1.58062 0.625812 3.5
      vertex -1.48972 0.818981 3.5
      vertex -2.38108 -0.3008 3.5
    endloop
  endfacet
  facet normal 0 0 1
    outer loop
      vertex -0.106744 1.69664 3.5
      vertex 0.106744 1.69664 3.5
      vertex 0.741641 2.28254 3.5
    endloop
  endfacet
  facet normal 0 0 1
    outer loop
      vertex -1.37533 0.999235 3.5
      vertex -1.23925 1.16373 3.5
      vertex -0.449715 2.35749 3.5
    endloop
  endfacet
  facet normal 0 0 1
    outer loop
      vertex -0.723825 1.53821 3.5
      vertex -0.525329 1.6168 3.5
      vertex 0.150697 2.39526 3.5
    endloop
  endfacet
  facet normal 0 0 1
    outer loop
      vertex -1.37533 0.999235 3.5
      vertex -2.38108 -0.3008 3.5
      vertex -1.48972 0.818981 3.5
    endloop
  endfacet
  facet normal 0 0 1
    outer loop
      vertex -0.449715 2.35749 3.5
      vertex -2.38108 -0.3008 3.5
      vertex -1.37533 0.999235 3.5
    endloop
  endfacet
  facet normal 0 0 1
    outer loop
      vertex -0.449715 2.35749 3.5
      vertex -1.23925 1.16373 3.5
      vertex -0.150697 2.39526 3.5
    endloop
  endfacet
  facet normal 0 0 1
    outer loop
      vertex -1.23925 1.16373 3.5
      vertex -1.08362 1.30987 3.5
      vertex -0.150697 2.39526 3.5
    endloop
  endfacet
  facet normal 0 0 1
    outer loop
      vertex -0.150697 2.39526 3.5
      vertex -0.910906 1.43536 3.5
      vertex 0.150697 2.39526 3.5
    endloop
  endfacet
  facet normal 0 0 1
    outer loop
      vertex -0.910906 1.43536 3.5
      vertex -0.723825 1.53821 3.5
      vertex 0.150697 2.39526 3.5
    endloop
  endfacet
  facet normal 0 0 1
    outer loop
      vertex 0.150697 2.39526 3.5
      vertex -0.525329 1.6168 3.5
      vertex 0.449715 2.35749 3.5
    endloop
  endfacet
  facet normal 0 0 1
    outer loop
      vertex -0.525329 1.6168 3.5
      vertex -0.318548 1.66989 3.5
      vertex 0.449715 2.35749 3.5
    endloop
  endfacet
  facet normal 0 0 1
    outer loop
      vertex 0.449715 2.35749 3.5
      vertex -0.106744 1.69664 3.5
      vertex 0.741641 2.28254 3.5
    endloop
  endfacet
  facet normal 0 0 1
    outer loop
      vertex -1.64659 0.422773 3.5
      vertex -1.58062 0.625812 3.5
      vertex -2.38108 -0.3008 3.5
    endloop
  endfacet
  facet normal 0 0 1
    outer loop
      vertex 0.741641 2.28254 3.5
      vertex 0.106744 1.69664 3.5
      vertex 1.02187 2.17158 3.5
    endloop
  endfacet
  facet normal 0 0 1
    outer loop
      vertex 0.106744 1.69664 3.5
      vertex 0.318548 1.66989 3.5
      vertex 1.02187 2.17158 3.5
    endloop
  endfacet
  facet normal 0 0 1
    outer loop
      vertex 1.02187 2.17158 3.5
      vertex 0.525329 1.6168 3.5
      vertex 1.28598 2.02639 3.5
    endloop
  endfacet
  facet normal 0 0 1
    outer loop
      vertex 0.910906 1.43536 3.5
      vertex 1.08362 1.30987 3.5
      vertex 1.74952 1.64291 3.5
    endloop
  endfacet
  facet normal 0 0 1
    outer loop
      vertex 1.28598 2.02639 3.5
      vertex 0.723825 1.53821 3.5
      vertex 1.52982 1.84923 3.5
    endloop
  endfacet
  facet normal 0 0 1
    outer loop
      vertex -1.68659 0.213066 3.5
      vertex -1.64659 0.422773 3.5
      vertex -2.38108 -0.3008 3.5
    endloop
  endfacet
  facet normal 0 0 1
    outer loop
      vertex 1.52982 1.84923 3.5
      vertex 0.910906 1.43536 3.5
      vertex 1.74952 1.64291 3.5
    endloop
  endfacet
  facet normal 0 0 1
    outer loop
      vertex -1.58062 -0.625812 3.5
      vertex -1.64659 -0.422773 3.5
      vertex -2.38108 -0.3008 3.5
    endloop
  endfacet
  facet normal 0 0 1
    outer loop
      vertex 1.74952 1.64291 3.5
      vertex 1.08362 1.30987 3.5
      vertex 1.94164 1.41068 3.5
    endloop
  endfacet
  facet normal 0 0 1
    outer loop
      vertex 1.08362 1.30987 3.5
      vertex 1.23925 1.16373 3.5
      vertex 1.94164 1.41068 3.5
    endloop
  endfacet
  facet normal 0 0 1
    outer loop
      vertex 1.94164 1.41068 3.5
      vertex 1.37533 0.999235 3.5
      vertex 2.10314 1.15621 3.5
    endloop
  endfacet
  facet normal 0 0 1
    outer loop
      vertex 0.723825 1.53821 3.5
      vertex 0.910906 1.43536 3.5
      vertex 1.52982 1.84923 3.5
    endloop
  endfacet
  facet normal 0 0 1
    outer loop
      vertex 2.10314 1.15621 3.5
      vertex 1.48972 0.818981 3.5
      vertex 2.23146 0.883499 3.5
    endloop
  endfacet
  facet normal 0 0 1
    outer loop
      vertex 2.23146 0.883499 3.5
      vertex 1.58062 0.625812 3.5
      vertex 2.3246 0.596856 3.5
    endloop
  endfacet
  facet normal 0 0 1
    outer loop
      vertex 1.64659 0.422773 3.5
      vertex 1.68659 0.213066 3.5
      vertex 2.38108 0.3008 3.5
    endloop
  endfacet
  facet normal 0 0 1
    outer loop
      vertex 2.3246 0.596856 3.5
      vertex 1.64659 0.422773 3.5
      vertex 2.38108 0.3008 3.5
    endloop
  endfacet
  facet normal 0 0 1
    outer loop
      vertex -1.7 0 3.5
      vertex -1.68659 0.213066 3.5
      vertex -2.38108 -0.3008 3.5
    endloop
  endfacet
  facet normal 0 0 1
    outer loop
      vertex 2.38108 0.3008 3.5
      vertex 1.68659 0.213066 3.5
      vertex 2.4 0 3.5
    endloop
  endfacet
  facet normal 0 0 1
    outer loop
      vertex 1.68659 0.213066 3.5
      vertex 1.7 0 3.5
      vertex 2.4 0 3.5
    endloop
  endfacet
  facet normal 0 0 1
    outer loop
      vertex 2.4 0 3.5
      vertex 1.68659 -0.213066 3.5
      vertex 2.38108 -0.3008 3.5
    endloop
  endfacet
  facet normal 0 0 1
    outer loop
      vertex 2.38108 -0.3008 3.5
      vertex 1.64659 -0.422773 3.5
      vertex 2.3246 -0.596856 3.5
    endloop
  endfacet
  facet normal 0 0 1
    outer loop
      vertex 2.3246 -0.596856 3.5
      vertex 1.58062 -0.625812 3.5
      vertex 2.23146 -0.883499 3.5
    endloop
  endfacet
  facet normal 0 0 1
    outer loop
      vertex 2.23146 -0.883499 3.5
      vertex 1.48972 -0.818981 3.5
      vertex 2.10314 -1.15621 3.5
    endloop
  endfacet
  facet normal 0 0 1
    outer loop
      vertex 1.48972 -0.818981 3.5
      vertex 1.37533 -0.999235 3.5
      vertex 2.10314 -1.15621 3.5
    endloop
  endfacet
  facet normal 0 0 1
    outer loop
      vertex 2.10314 -1.15621 3.5
      vertex 1.23925 -1.16373 3.5
      vertex 1.94164 -1.41068 3.5
    endloop
  endfacet
  facet normal 0 0 1
    outer loop
      vertex 1.94164 -1.41068 3.5
      vertex 1.08362 -1.30987 3.5
      vertex 1.74952 -1.64291 3.5
    endloop
  endfacet
  facet normal 0 0 1
    outer loop
      vertex 1.74952 -1.64291 3.5
      vertex 0.910906 -1.43536 3.5
      vertex 1.52982 -1.84923 3.5
    endloop
  endfacet
  facet normal 0 0 1
    outer loop
      vertex 1.52982 -1.84923 3.5
      vertex 0.723825 -1.53821 3.5
      vertex 1.28598 -2.02639 3.5
    endloop
  endfacet
  facet normal 0 0 1
    outer loop
      vertex 0.723825 -1.53821 3.5
      vertex 0.525329 -1.6168 3.5
      vertex 1.28598 -2.02639 3.5
    endloop
  endfacet
  facet normal 0 0 1
    outer loop
      vertex 1.28598 -2.02639 3.5
      vertex 0.318548 -1.66989 3.5
      vertex 1.02187 -2.17158 3.5
    endloop
  endfacet
  facet normal 0 0 1
    outer loop
      vertex 1.02187 -2.17158 3.5
      vertex 0.106744 -1.69664 3.5
      vertex 0.741641 -2.28254 3.5
    endloop
  endfacet
  facet normal 0 0 1
    outer loop
      vertex 0.106744 -1.69664 3.5
      vertex -0.106744 -1.69664 3.5
      vertex 0.741641 -2.28254 3.5
    endloop
  endfacet
  facet normal 0 0 1
    outer loop
      vertex 0.741641 -2.28254 3.5
      vertex -0.318548 -1.66989 3.5
      vertex 0.449715 -2.35749 3.5
    endloop
  endfacet
  facet normal 0 0 1
    outer loop
      vertex -0.318548 -1.66989 3.5
      vertex -0.525329 -1.6168 3.5
      vertex 0.449715 -2.35749 3.5
    endloop
  endfacet
  facet normal 0 0 1
    outer loop
      vertex 0.449715 -2.35749 3.5
      vertex -0.723825 -1.53821 3.5
      vertex 0.150697 -2.39526 3.5
    endloop
  endfacet
  facet normal 0 0 1
    outer loop
      vertex -0.723825 -1.53821 3.5
      vertex -0.910906 -1.43536 3.5
      vertex 0.150697 -2.39526 3.5
    endloop
  endfacet
  facet normal 0 0 1
    outer loop
      vertex -0.910906 -1.43536 3.5
      vertex -1.08362 -1.30987 3.5
      vertex 0.150697 -2.39526 3.5
    endloop
  endfacet
  facet normal 0 0 1
    outer loop
      vertex -1.37533 -0.999235 3.5
      vertex -1.48972 -0.818981 3.5
      vertex -2.38108 -0.3008 3.5
    endloop
  endfacet
  facet normal 0 0 1
    outer loop
      vertex -1.23925 -1.16373 3.5
      vertex -1.37533 -0.999235 3.5
      vertex -2.38108 -0.3008 3.5
    endloop
  endfacet
  facet normal 0 0 1
    outer loop
      vertex 1.48972 0.818981 3.5
      vertex 1.58062 0.625812 3.5
      vertex 2.23146 0.883499 3.5
    endloop
  endfacet
  facet normal 0 0 1
    outer loop
      vertex 1.58062 0.625812 3.5
      vertex 1.64659 0.422773 3.5
      vertex 2.3246 0.596856 3.5
    endloop
  endfacet
  facet normal 0 0 1
    outer loop
      vertex -1.68659 -0.213066 3.5
      vertex -1.7 0 3.5
      vertex -2.38108 -0.3008 3.5
    endloop
  endfacet
  facet normal 0 0 -1
    outer loop
      vertex -0.85 0 -3.6
      vertex -0.831425 0.176725 -3.6
      vertex -0.831425 -0.176725 -3.6
    endloop
  endfacet
  facet normal 0 0 -1
    outer loop
      vertex -0.831425 -0.176725 -3.6
      vertex -0.831425 0.176725 -3.6
      vertex -0.776514 0.345726 -3.6
    endloop
  endfacet
  facet normal 0 0 -1
    outer loop
      vertex -0.831425 -0.176725 -3.6
      vertex -0.776514 0.345726 -3.6
      vertex -0.687664 0.499617 -3.6
    endloop
  endfacet
  facet normal 0 0 -1
    outer loop
      vertex -0.831425 -0.176725 -3.6
      vertex -0.687664 0.499617 -3.6
      vertex -0.568761 0.631673 -3.6
    endloop
  endfacet
  facet normal 0 0 -1
    outer loop
      vertex -0.831425 -0.176725 -3.6
      vertex -0.568761 0.631673 -3.6
      vertex -0.425 0.736122 -3.6
    endloop
  endfacet
  facet normal 0 0 -1
    outer loop
      vertex -0.831425 -0.176725 -3.6
      vertex -0.425 0.736122 -3.6
      vertex -0.262664 0.808398 -3.6
    endloop
  endfacet
  facet normal 0 0 -1
    outer loop
      vertex -0.831425 -0.176725 -3.6
      vertex -0.262664 0.808398 -3.6
      vertex -0.088849 0.845344 -3.6
    endloop
  endfacet
  facet normal 0 0 -1
    outer loop
      vertex -0.831425 -0.176725 -3.6
      vertex -0.088849 0.845344 -3.6
      vertex 0.088849 0.845344 -3.6
    endloop
  endfacet
  facet normal 0 0 -1
    outer loop
      vertex -0.831425 -0.176725 -3.6
      vertex 0.088849 0.845344 -3.6
      vertex 0.262664 0.808398 -3.6
    endloop
  endfacet
  facet normal 0 0 -1
    outer loop
      vertex -0.831425 -0.176725 -3.6
      vertex 0.262664 0.808398 -3.6
      vertex 0.425 0.736122 -3.6
    endloop
  endfacet
  facet normal 0 0 -1
    outer loop
      vertex -0.831425 -0.176725 -3.6
      vertex 0.425 0.736122 -3.6
      vertex 0.568761 0.631673 -3.6
    endloop
  endfacet
  facet normal 0 0 -1
    outer loop
      vertex -0.831425 -0.176725 -3.6
      vertex 0.568761 0.631673 -3.6
      vertex 0.687664 0.499617 -3.6
    endloop
  endfacet
  facet normal 0 0 -1
    outer loop
      vertex -0.831425 -0.176725 -3.6
      vertex 0.687664 0.499617 -3.6
      vertex 0.776514 0.345726 -3.6
    endloop
  endfacet
  facet normal 0 0 -1
    outer loop
      vertex -0.831425 -0.176725 -3.6
      vertex 0.776514 0.345726 -3.6
      vertex 0.831425 0.176725 -3.6
    endloop
  endfacet
  facet normal 0 0 -1
    outer loop
      vertex -0.831425 -0.176725 -3.6
      vertex 0.831425 0.176725 -3.6
      vertex 0.85 0 -3.6
    endloop
  endfacet
  facet normal 0 0 -1
    outer loop
      vertex -0.831425 -0.176725 -3.6
      vertex 0.85 0 -3.6
      vertex 0.831425 -0.176725 -3.6
    endloop
  endfacet
  facet normal 0 0 -1
    outer loop
      vertex -0.831425 -0.176725 -3.6
      vertex 0.831425 -0.176725 -3.6
      vertex 0.776514 -0.345726 -3.6
    endloop
  endfacet
  facet normal 0 0 -1
    outer loop
      vertex -0.831425 -0.176725 -3.6
      vertex 0.776514 -0.345726 -3.6
      vertex 0.687664 -0.499617 -3.6
    endloop
  endfacet
  facet normal 0 0 -1
    outer loop
      vertex -0.831425 -0.176725 -3.6
      vertex 0.687664 -0.499617 -3.6
      vertex 0.568761 -0.631673 -3.6
    endloop
  endfacet
  facet normal 0 0 -1
    outer loop
      vertex -0.831425 -0.176725 -3.6
      vertex 0.568761 -0.631673 -3.6
      vertex 0.425 -0.736122 -3.6
    endloop
  endfacet
  facet normal 0 0 -1
    outer loop
      vertex -0.831425 -0.176725 -3.6
      vertex 0.425 -0.736122 -3.6
      vertex 0.262664 -0.808398 -3.6
    endloop
  endfacet
  facet normal 0 0 -1
    outer loop
      vertex -0.831425 -0.176725 -3.6
      vertex 0.262664 -0.808398 -3.6
      vertex 0.088849 -0.845344 -3.6
    endloop
  endfacet
  facet normal 0 0 -1
    outer loop
      vertex -0.831425 -0.176725 -3.6
      vertex 0.088849 -0.845344 -3.6
      vertex -0.088849 -0.845344 -3.6
    endloop
  endfacet
  facet normal 0 0 -1
    outer loop
      vertex -0.831425 -0.176725 -3.6
      vertex -0.088849 -0.845344 -3.6
      vertex -0.262664 -0.808398 -3.6
    endloop
  endfacet
  facet normal 0 0 -1
    outer loop
      vertex -0.831425 -0.176725 -3.6
      vertex -0.262664 -0.808398 -3.6
      vertex -0.425 -0.736122 -3.6
    endloop
  endfacet
  facet normal 0 0 -1
    outer loop
      vertex -0.831425 -0.176725 -3.6
      vertex -0.425 -0.736122 -3.6
      vertex -0.568761 -0.631673 -3.6
    endloop
  endfacet
  facet normal 0 0 -1
    outer loop
      vertex -0.831425 -0.176725 -3.6
      vertex -0.568761 -0.631673 -3.6
      vertex -0.687664 -0.499617 -3.6
    endloop
  endfacet
  facet normal 0 0 -1
    outer loop
      vertex -0.831425 -0.176725 -3.6
      vertex -0.687664 -0.499617 -3.6
      vertex -0.776514 -0.345726 -3.6
    endloop
  endfacet
  facet normal -0.998027 0.0627906 0
    outer loop
      vertex -1.7 0 3.5
      vertex -1.7 0 4.8
      vertex -1.68659 0.213066 3.5
    endloop
  endfacet
  facet normal -0.998027 0.0627906 0
    outer loop
      vertex -1.68659 0.213066 3.5
      vertex -1.7 0 4.8
      vertex -1.68659 0.213066 4.8
    endloop
  endfacet
  facet normal -0.998027 -0.0627906 0
    outer loop
      vertex -1.7 0 3.5
      vertex -1.68659 -0.213066 3.5
      vertex -1.7 0 4.8
    endloop
  endfacet
  facet normal -0.998027 -0.0627906 0
    outer loop
      vertex -1.7 0 4.8
      vertex -1.68659 -0.213066 3.5
      vertex -1.68659 -0.213066 4.8
    endloop
  endfacet
  facet normal -0.982287 -0.187382 0
    outer loop
      vertex -1.68659 -0.213066 3.5
      vertex -1.64659 -0.422773 3.5
      vertex -1.68659 -0.213066 4.8
    endloop
  endfacet
  facet normal -0.982287 -0.187382 0
    outer loop
      vertex -1.68659 -0.213066 4.8
      vertex -1.64659 -0.422773 3.5
      vertex -1.64659 -0.422773 4.8
    endloop
  endfacet
  facet normal -0.951057 -0.309015 0
    outer loop
      vertex -1.64659 -0.422773 3.5
      vertex -1.58062 -0.625812 3.5
      vertex -1.64659 -0.422773 4.8
    endloop
  endfacet
  facet normal -0.951057 -0.309015 0
    outer loop
      vertex -1.64659 -0.422773 4.8
      vertex -1.58062 -0.625812 3.5
      vertex -1.58062 -0.625812 4.8
    endloop
  endfacet
  facet normal -0.904826 -0.425781 0
    outer loop
      vertex -1.58062 -0.625812 3.5
      vertex -1.48972 -0.818981 3.5
      vertex -1.58062 -0.625812 4.8
    endloop
  endfacet
  facet normal -0.904826 -0.425781 0
    outer loop
      vertex -1.58062 -0.625812 4.8
      vertex -1.48972 -0.818981 3.5
      vertex -1.48972 -0.818981 4.8
    endloop
  endfacet
  facet normal -0.844329 -0.535825 0
    outer loop
      vertex -1.48972 -0.818981 3.5
      vertex -1.37533 -0.999235 3.5
      vertex -1.48972 -0.818981 4.8
    endloop
  endfacet
  facet normal -0.844329 -0.535825 0
    outer loop
      vertex -1.48972 -0.818981 4.8
      vertex -1.37533 -0.999235 3.5
      vertex -1.37533 -0.999235 4.8
    endloop
  endfacet
  facet normal -0.770513 -0.637424 0
    outer loop
      vertex -1.37533 -0.999235 3.5
      vertex -1.23925 -1.16373 3.5
      vertex -1.37533 -0.999235 4.8
    endloop
  endfacet
  facet normal -0.770513 -0.637424 0
    outer loop
      vertex -1.37533 -0.999235 4.8
      vertex -1.23925 -1.16373 3.5
      vertex -1.23925 -1.16373 4.8
    endloop
  endfacet
  facet normal -0.684548 -0.728968 0
    outer loop
      vertex -1.23925 -1.16373 4.8
      vertex -1.23925 -1.16373 3.5
      vertex -1.08362 -1.30987 3.5
    endloop
  endfacet
  facet normal -0.684548 -0.728968 0
    outer loop
      vertex -1.08362 -1.30987 4.8
      vertex -1.23925 -1.16373 4.8
      vertex -1.08362 -1.30987 3.5
    endloop
  endfacet
  facet normal -0.587783 -0.809019 0
    outer loop
      vertex -1.08362 -1.30987 4.8
      vertex -1.08362 -1.30987 3.5
      vertex -0.910906 -1.43536 3.5
    endloop
  endfacet
  facet normal -0.587783 -0.809019 0
    outer loop
      vertex -0.910906 -1.43536 4.8
      vertex -1.08362 -1.30987 4.8
      vertex -0.910906 -1.43536 3.5
    endloop
  endfacet
  facet normal -0.481755 -0.876306 0
    outer loop
      vertex -0.910906 -1.43536 4.8
      vertex -0.910906 -1.43536 3.5
      vertex -0.723825 -1.53821 3.5
    endloop
  endfacet
  facet normal -0.481755 -0.876306 0
    outer loop
      vertex -0.723825 -1.53821 4.8
      vertex -0.910906 -1.43536 4.8
      vertex -0.723825 -1.53821 3.5
    endloop
  endfacet
  facet normal -0.368124 -0.929777 0
    outer loop
      vertex -0.723825 -1.53821 4.8
      vertex -0.723825 -1.53821 3.5
      vertex -0.525329 -1.6168 3.5
    endloop
  endfacet
  facet normal -0.368124 -0.929777 0
    outer loop
      vertex -0.525329 -1.6168 4.8
      vertex -0.723825 -1.53821 4.8
      vertex -0.525329 -1.6168 3.5
    endloop
  endfacet
  facet normal -0.248688 -0.968584 0
    outer loop
      vertex -0.525329 -1.6168 4.8
      vertex -0.525329 -1.6168 3.5
      vertex -0.318548 -1.66989 3.5
    endloop
  endfacet
  facet normal -0.248688 -0.968584 0
    outer loop
      vertex -0.318548 -1.66989 4.8
      vertex -0.525329 -1.6168 4.8
      vertex -0.318548 -1.66989 3.5
    endloop
  endfacet
  facet normal -0.125333 -0.992115 0
    outer loop
      vertex -0.318548 -1.66989 4.8
      vertex -0.318548 -1.66989 3.5
      vertex -0.106744 -1.69664 3.5
    endloop
  endfacet
  facet normal -0.125333 -0.992115 0
    outer loop
      vertex -0.106744 -1.69664 4.8
      vertex -0.318548 -1.66989 4.8
      vertex -0.106744 -1.69664 3.5
    endloop
  endfacet
  facet normal 0 -1 0
    outer loop
      vertex -0.106744 -1.69664 4.8
      vertex -0.106744 -1.69664 3.5
      vertex 0.106744 -1.69664 3.5
    endloop
  endfacet
  facet normal 0 -1 0
    outer loop
      vertex 0.106744 -1.69664 4.8
      vertex -0.106744 -1.69664 4.8
      vertex 0.106744 -1.69664 3.5
    endloop
  endfacet
  facet normal 0.125333 -0.992115 0
    outer loop
      vertex 0.106744 -1.69664 4.8
      vertex 0.106744 -1.69664 3.5
      vertex 0.318548 -1.66989 3.5
    endloop
  endfacet
  facet normal 0.125333 -0.992115 0
    outer loop
      vertex 0.318548 -1.66989 4.8
      vertex 0.106744 -1.69664 4.8
      vertex 0.318548 -1.66989 3.5
    endloop
  endfacet
  facet normal 0.248688 -0.968584 0
    outer loop
      vertex 0.318548 -1.66989 4.8
      vertex 0.318548 -1.66989 3.5
      vertex 0.525329 -1.6168 3.5
    endloop
  endfacet
  facet normal 0.248688 -0.968584 0
    outer loop
      vertex 0.525329 -1.6168 4.8
      vertex 0.318548 -1.66989 4.8
      vertex 0.525329 -1.6168 3.5
    endloop
  endfacet
  facet normal 0.368124 -0.929777 0
    outer loop
      vertex 0.525329 -1.6168 4.8
      vertex 0.525329 -1.6168 3.5
      vertex 0.723825 -1.53821 3.5
    endloop
  endfacet
  facet normal 0.368124 -0.929777 0
    outer loop
      vertex 0.723825 -1.53821 4.8
      vertex 0.525329 -1.6168 4.8
      vertex 0.723825 -1.53821 3.5
    endloop
  endfacet
  facet normal 0.481755 -0.876306 0
    outer loop
      vertex 0.723825 -1.53821 4.8
      vertex 0.723825 -1.53821 3.5
      vertex 0.910906 -1.43536 3.5
    endloop
  endfacet
  facet normal 0.481755 -0.876306 0
    outer loop
      vertex 0.910906 -1.43536 4.8
      vertex 0.723825 -1.53821 4.8
      vertex 0.910906 -1.43536 3.5
    endloop
  endfacet
  facet normal 0.587783 -0.809019 0
    outer loop
      vertex 0.910906 -1.43536 4.8
      vertex 0.910906 -1.43536 3.5
      vertex 1.08362 -1.30987 3.5
    endloop
  endfacet
  facet normal 0.587783 -0.809019 0
    outer loop
      vertex 1.08362 -1.30987 4.8
      vertex 0.910906 -1.43536 4.8
      vertex 1.08362 -1.30987 3.5
    endloop
  endfacet
  facet normal 0.684548 -0.728968 0
    outer loop
      vertex 1.08362 -1.30987 4.8
      vertex 1.08362 -1.30987 3.5
      vertex 1.23925 -1.16373 3.5
    endloop
  endfacet
  facet normal 0.684548 -0.728968 0
    outer loop
      vertex 1.23925 -1.16373 4.8
      vertex 1.08362 -1.30987 4.8
      vertex 1.23925 -1.16373 3.5
    endloop
  endfacet
  facet normal 0.770513 -0.637424 0
    outer loop
      vertex 1.23925 -1.16373 4.8
      vertex 1.23925 -1.16373 3.5
      vertex 1.37533 -0.999235 3.5
    endloop
  endfacet
  facet normal 0.770513 -0.637424 0
    outer loop
      vertex 1.37533 -0.999235 4.8
      vertex 1.23925 -1.16373 4.8
      vertex 1.37533 -0.999235 3.5
    endloop
  endfacet
  facet normal 0.844329 -0.535825 0
    outer loop
      vertex 1.37533 -0.999235 4.8
      vertex 1.37533 -0.999235 3.5
      vertex 1.48972 -0.818981 3.5
    endloop
  endfacet
  facet normal 0.844329 -0.535825 0
    outer loop
      vertex 1.48972 -0.818981 4.8
      vertex 1.37533 -0.999235 4.8
      vertex 1.48972 -0.818981 3.5
    endloop
  endfacet
  facet normal 0.904826 -0.425781 0
    outer loop
      vertex 1.48972 -0.818981 4.8
      vertex 1.48972 -0.818981 3.5
      vertex 1.58062 -0.625812 3.5
    endloop
  endfacet
  facet normal 0.904826 -0.425781 0
    outer loop
      vertex 1.58062 -0.625812 4.8
      vertex 1.48972 -0.818981 4.8
      vertex 1.58062 -0.625812 3.5
    endloop
  endfacet
  facet normal 0.951057 -0.309015 0
    outer loop
      vertex 1.58062 -0.625812 4.8
      vertex 1.58062 -0.625812 3.5
      vertex 1.64659 -0.422773 3.5
    endloop
  endfacet
  facet normal 0.951057 -0.309015 0
    outer loop
      vertex 1.64659 -0.422773 4.8
      vertex 1.58062 -0.625812 4.8
      vertex 1.64659 -0.422773 3.5
    endloop
  endfacet
  facet normal 0.982287 -0.187382 0
    outer loop
      vertex 1.64659 -0.422773 4.8
      vertex 1.64659 -0.422773 3.5
      vertex 1.68659 -0.213066 3.5
    endloop
  endfacet
  facet normal 0.982287 -0.187382 0
    outer loop
      vertex 1.68659 -0.213066 4.8
      vertex 1.64659 -0.422773 4.8
      vertex 1.68659 -0.213066 3.5
    endloop
  endfacet
  facet normal 0.998027 -0.0627906 0
    outer loop
      vertex 1.68659 -0.213066 4.8
      vertex 1.68659 -0.213066 3.5
      vertex 1.7 0 3.5
    endloop
  endfacet
  facet normal 0.998027 -0.0627906 0
    outer loop
      vertex 1.7 0 4.8
      vertex 1.68659 -0.213066 4.8
      vertex 1.7 0 3.5
    endloop
  endfacet
  facet normal 0.998027 0.0627906 0
    outer loop
      vertex 1.7 0 3.5
      vertex 1.68659 0.213066 3.5
      vertex 1.68659 0.213066 4.8
    endloop
  endfacet
  facet normal 0.998027 0.0627906 0
    outer loop
      vertex 1.7 0 4.8
      vertex 1.7 0 3.5
      vertex 1.68659 0.213066 4.8
    endloop
  endfacet
  facet normal 0.982287 0.187382 0
    outer loop
      vertex 1.68659 0.213066 3.5
      vertex 1.64659 0.422773 3.5
      vertex 1.64659 0.422773 4.8
    endloop
  endfacet
  facet normal 0.982287 0.187382 0
    outer loop
      vertex 1.68659 0.213066 4.8
      vertex 1.68659 0.213066 3.5
      vertex 1.64659 0.422773 4.8
    endloop
  endfacet
  facet normal 0.951057 0.309015 0
    outer loop
      vertex 1.64659 0.422773 3.5
      vertex 1.58062 0.625812 3.5
      vertex 1.58062 0.625812 4.8
    endloop
  endfacet
  facet normal 0.951057 0.309015 0
    outer loop
      vertex 1.64659 0.422773 4.8
      vertex 1.64659 0.422773 3.5
      vertex 1.58062 0.625812 4.8
    endloop
  endfacet
  facet normal 0.904826 0.425781 0
    outer loop
      vertex 1.58062 0.625812 3.5
      vertex 1.48972 0.818981 3.5
      vertex 1.48972 0.818981 4.8
    endloop
  endfacet
  facet normal 0.904826 0.425781 0
    outer loop
      vertex 1.58062 0.625812 4.8
      vertex 1.58062 0.625812 3.5
      vertex 1.48972 0.818981 4.8
    endloop
  endfacet
  facet normal 0.844329 0.535825 0
    outer loop
      vertex 1.48972 0.818981 3.5
      vertex 1.37533 0.999235 3.5
      vertex 1.37533 0.999235 4.8
    endloop
  endfacet
  facet normal 0.844329 0.535825 0
    outer loop
      vertex 1.48972 0.818981 4.8
      vertex 1.48972 0.818981 3.5
      vertex 1.37533 0.999235 4.8
    endloop
  endfacet
  facet normal 0.770513 0.637424 0
    outer loop
      vertex 1.37533 0.999235 3.5
      vertex 1.23925 1.16373 3.5
      vertex 1.23925 1.16373 4.8
    endloop
  endfacet
  facet normal 0.770513 0.637424 0
    outer loop
      vertex 1.37533 0.999235 4.8
      vertex 1.37533 0.999235 3.5
      vertex 1.23925 1.16373 4.8
    endloop
  endfacet
  facet normal 0.684548 0.728968 0
    outer loop
      vertex 1.08362 1.30987 3.5
      vertex 1.08362 1.30987 4.8
      vertex 1.23925 1.16373 3.5
    endloop
  endfacet
  facet normal 0.684548 0.728968 0
    outer loop
      vertex 1.23925 1.16373 3.5
      vertex 1.08362 1.30987 4.8
      vertex 1.23925 1.16373 4.8
    endloop
  endfacet
  facet normal 0.587783 0.809019 0
    outer loop
      vertex 0.910906 1.43536 3.5
      vertex 0.910906 1.43536 4.8
      vertex 1.08362 1.30987 3.5
    endloop
  endfacet
  facet normal 0.587783 0.809019 0
    outer loop
      vertex 1.08362 1.30987 3.5
      vertex 0.910906 1.43536 4.8
      vertex 1.08362 1.30987 4.8
    endloop
  endfacet
  facet normal 0.481755 0.876306 0
    outer loop
      vertex 0.723825 1.53821 3.5
      vertex 0.723825 1.53821 4.8
      vertex 0.910906 1.43536 3.5
    endloop
  endfacet
  facet normal 0.481755 0.876306 0
    outer loop
      vertex 0.910906 1.43536 3.5
      vertex 0.723825 1.53821 4.8
      vertex 0.910906 1.43536 4.8
    endloop
  endfacet
  facet normal 0.368124 0.929777 0
    outer loop
      vertex 0.525329 1.6168 3.5
      vertex 0.525329 1.6168 4.8
      vertex 0.723825 1.53821 3.5
    endloop
  endfacet
  facet normal 0.368124 0.929777 0
    outer loop
      vertex 0.723825 1.53821 3.5
      vertex 0.525329 1.6168 4.8
      vertex 0.723825 1.53821 4.8
    endloop
  endfacet
  facet normal 0.248688 0.968584 0
    outer loop
      vertex 0.318548 1.66989 3.5
      vertex 0.318548 1.66989 4.8
      vertex 0.525329 1.6168 3.5
    endloop
  endfacet
  facet normal 0.248688 0.968584 0
    outer loop
      vertex 0.525329 1.6168 3.5
      vertex 0.318548 1.66989 4.8
      vertex 0.525329 1.6168 4.8
    endloop
  endfacet
  facet normal 0.125333 0.992115 0
    outer loop
      vertex 0.106744 1.69664 3.5
      vertex 0.106744 1.69664 4.8
      vertex 0.318548 1.66989 3.5
    endloop
  endfacet
  facet normal 0.125333 0.992115 0
    outer loop
      vertex 0.318548 1.66989 3.5
      vertex 0.106744 1.69664 4.8
      vertex 0.318548 1.66989 4.8
    endloop
  endfacet
  facet normal 0 1 0
    outer loop
      vertex -0.106744 1.69664 3.5
      vertex -0.106744 1.69664 4.8
      vertex 0.106744 1.69664 3.5
    endloop
  endfacet
  facet normal 0 1 0
    outer loop
      vertex 0.106744 1.69664 3.5
      vertex -0.106744 1.69664 4.8
      vertex 0.106744 1.69664 4.8
    endloop
  endfacet
  facet normal -0.125333 0.992115 0
    outer loop
      vertex -0.318548 1.66989 3.5
      vertex -0.318548 1.66989 4.8
      vertex -0.106744 1.69664 3.5
    endloop
  endfacet
  facet normal -0.125333 0.992115 0
    outer loop
      vertex -0.106744 1.69664 3.5
      vertex -0.318548 1.66989 4.8
      vertex -0.106744 1.69664 4.8
    endloop
  endfacet
  facet normal -0.248688 0.968584 0
    outer loop
      vertex -0.525329 1.6168 3.5
      vertex -0.525329 1.6168 4.8
      vertex -0.318548 1.66989 3.5
    endloop
  endfacet
  facet normal -0.248688 0.968584 0
    outer loop
      vertex -0.318548 1.66989 3.5
      vertex -0.525329 1.6168 4.8
      vertex -0.318548 1.66989 4.8
    endloop
  endfacet
  facet normal -0.368124 0.929777 0
    outer loop
      vertex -0.723825 1.53821 3.5
      vertex -0.723825 1.53821 4.8
      vertex -0.525329 1.6168 3.5
    endloop
  endfacet
  facet normal -0.368124 0.929777 0
    outer loop
      vertex -0.525329 1.6168 3.5
      vertex -0.723825 1.53821 4.8
      vertex -0.525329 1.6168 4.8
    endloop
  endfacet
  facet normal -0.481755 0.876306 0
    outer loop
      vertex -0.910906 1.43536 3.5
      vertex -0.910906 1.43536 4.8
      vertex -0.723825 1.53821 3.5
    endloop
  endfacet
  facet normal -0.481755 0.876306 0
    outer loop
      vertex -0.723825 1.53821 3.5
      vertex -0.910906 1.43536 4.8
      vertex -0.723825 1.53821 4.8
    endloop
  endfacet
  facet normal -0.587783 0.809019 0
    outer loop
      vertex -1.08362 1.30987 3.5
      vertex -1.08362 1.30987 4.8
      vertex -0.910906 1.43536 3.5
    endloop
  endfacet
  facet normal -0.587783 0.809019 0
    outer loop
      vertex -0.910906 1.43536 3.5
      vertex -1.08362 1.30987 4.8
      vertex -0.910906 1.43536 4.8
    endloop
  endfacet
  facet normal -0.684548 0.728968 0
    outer loop
      vertex -1.23925 1.16373 3.5
      vertex -1.23925 1.16373 4.8
      vertex -1.08362 1.30987 3.5
    endloop
  endfacet
  facet normal -0.684548 0.728968 0
    outer loop
      vertex -1.08362 1.30987 3.5
      vertex -1.23925 1.16373 4.8
      vertex -1.08362 1.30987 4.8
    endloop
  endfacet
  facet normal -0.770513 0.637424 0
    outer loop
      vertex -1.37533 0.999235 3.5
      vertex -1.37533 0.999235 4.8
      vertex -1.23925 1.16373 3.5
    endloop
  endfacet
  facet normal -0.770513 0.637424 0
    outer loop
      vertex -1.23925 1.16373 3.5
      vertex -1.37533 0.999235 4.8
      vertex -1.23925 1.16373 4.8
    endloop
  endfacet
  facet normal -0.844329 0.535825 0
    outer loop
      vertex -1.48972 0.818981 3.5
      vertex -1.48972 0.818981 4.8
      vertex -1.37533 0.999235 3.5
    endloop
  endfacet
  facet normal -0.844329 0.535825 0
    outer loop
      vertex -1.37533 0.999235 3.5
      vertex -1.48972 0.818981 4.8
      vertex -1.37533 0.999235 4.8
    endloop
  endfacet
  facet normal -0.904826 0.425781 0
    outer loop
      vertex -1.58062 0.625812 3.5
      vertex -1.58062 0.625812 4.8
      vertex -1.48972 0.818981 3.5
    endloop
  endfacet
  facet normal -0.904826 0.425781 0
    outer loop
      vertex -1.48972 0.818981 3.5
      vertex -1.58062 0.625812 4.8
      vertex -1.48972 0.818981 4.8
    endloop
  endfacet
  facet normal -0.951057 0.309015 0
    outer loop
      vertex -1.64659 0.422773 3.5
      vertex -1.64659 0.422773 4.8
      vertex -1.58062 0.625812 3.5
    endloop
  endfacet
  facet normal -0.951057 0.309015 0
    outer loop
      vertex -1.58062 0.625812 3.5
      vertex -1.64659 0.422773 4.8
      vertex -1.58062 0.625812 4.8
    endloop
  endfacet
  facet normal -0.982287 0.187382 0
    outer loop
      vertex -1.68659 0.213066 3.5
      vertex -1.68659 0.213066 4.8
      vertex -1.64659 0.422773 3.5
    endloop
  endfacet
  facet normal -0.982287 0.187382 0
    outer loop
      vertex -1.64659 0.422773 3.5
      vertex -1.68659 0.213066 4.8
      vertex -1.64659 0.422773 4.8
    endloop
  endfacet
  facet normal 0 0 1
    outer loop
      vertex -1.68659 0.213066 4.8
      vertex -1.7 0 4.8
      vertex -1.68659 -0.213066 4.8
    endloop
  endfacet
  facet normal 0 0 1
    outer loop
      vertex -1.58062 -0.625812 4.8
      vertex -1.68659 0.213066 4.8
      vertex -1.64659 -0.422773 4.8
    endloop
  endfacet
  facet normal 0 0 1
    outer loop
      vertex -1.64659 -0.422773 4.8
      vertex -1.68659 0.213066 4.8
      vertex -1.68659 -0.213066 4.8
    endloop
  endfacet
  facet normal 0 0 1
    outer loop
      vertex -1.48972 -0.818981 4.8
      vertex -1.68659 0.213066 4.8
      vertex -1.58062 -0.625812 4.8
    endloop
  endfacet
  facet normal 0 0 1
    outer loop
      vertex -1.37533 -0.999235 4.8
      vertex -1.68659 0.213066 4.8
      vertex -1.48972 -0.818981 4.8
    endloop
  endfacet
  facet normal 0 0 1
    outer loop
      vertex -1.23925 -1.16373 4.8
      vertex -1.68659 0.213066 4.8
      vertex -1.37533 -0.999235 4.8
    endloop
  endfacet
  facet normal 0 0 1
    outer loop
      vertex -1.08362 -1.30987 4.8
      vertex -1.68659 0.213066 4.8
      vertex -1.23925 -1.16373 4.8
    endloop
  endfacet
  facet normal 0 0 1
    outer loop
      vertex -0.910906 -1.43536 4.8
      vertex -1.68659 0.213066 4.8
      vertex -1.08362 -1.30987 4.8
    endloop
  endfacet
  facet normal 0 0 1
    outer loop
      vertex -0.723825 -1.53821 4.8
      vertex -1.68659 0.213066 4.8
      vertex -0.910906 -1.43536 4.8
    endloop
  endfacet
  facet normal 0 0 1
    outer loop
      vertex -0.525329 -1.6168 4.8
      vertex -1.68659 0.213066 4.8
      vertex -0.723825 -1.53821 4.8
    endloop
  endfacet
  facet normal 0 0 1
    outer loop
      vertex -0.318548 -1.66989 4.8
      vertex -1.68659 0.213066 4.8
      vertex -0.525329 -1.6168 4.8
    endloop
  endfacet
  facet normal 0 0 1
    outer loop
      vertex -0.106744 -1.69664 4.8
      vertex -1.68659 0.213066 4.8
      vertex -0.318548 -1.66989 4.8
    endloop
  endfacet
  facet normal 0 0 1
    outer loop
      vertex 0.106744 -1.69664 4.8
      vertex -1.68659 0.213066 4.8
      vertex -0.106744 -1.69664 4.8
    endloop
  endfacet
  facet normal 0 0 1
    outer loop
      vertex 0.318548 -1.66989 4.8
      vertex -1.68659 0.213066 4.8
      vertex 0.106744 -1.69664 4.8
    endloop
  endfacet
  facet normal 0 0 1
    outer loop
      vertex -0.35 -0.9 4.8
      vertex -1.68659 0.213066 4.8
      vertex 0.318548 -1.66989 4.8
    endloop
  endfacet
  facet normal 0 0 1
    outer loop
      vertex 0.35 0.35 4.8
      vertex 0.9 0.35 4.8
      vertex 1.64659 0.422773 4.8
    endloop
  endfacet
  facet normal 0 0 1
    outer loop
      vertex 0.35 -0.9 4.8
      vertex 0.525329 -1.6168 4.8
      vertex 0.723825 -1.53821 4.8
    endloop
  endfacet
  facet normal 0 0 1
    outer loop
      vertex -0.35 0.35 4.8
      vertex -0.35 0.9 4.8
      vertex -0.9 0.35 4.8
    endloop
  endfacet
  facet normal 0 0 1
    outer loop
      vertex -0.9 0.35 4.8
      vertex -0.35 0.9 4.8
      vertex -1.68659 0.213066 4.8
    endloop
  endfacet
  facet normal 0 0 1
    outer loop
      vertex 0.9 0.35 4.8
      vertex 1.7 0 4.8
      vertex 1.68659 0.213066 4.8
    endloop
  endfacet
  facet normal 0 0 1
    outer loop
      vertex 0.35 0.9 4.8
      vertex 1.48972 0.818981 4.8
      vertex 1.37533 0.999235 4.8
    endloop
  endfacet
  facet normal 0 0 1
    outer loop
      vertex -0.35 0.9 4.8
      vertex 1.08362 1.30987 4.8
      vertex 0.910906 1.43536 4.8
    endloop
  endfacet
  facet normal 0 0 1
    outer loop
      vertex 0.9 0.35 4.8
      vertex 1.64659 -0.422773 4.8
      vertex 1.68659 -0.213066 4.8
    endloop
  endfacet
  facet normal 0 0 1
    outer loop
      vertex 0.35 0.9 4.8
      vertex 0.35 0.35 4.8
      vertex 1.64659 0.422773 4.8
    endloop
  endfacet
  facet normal 0 0 1
    outer loop
      vertex 0.35 0.9 4.8
      vertex 1.64659 0.422773 4.8
      vertex 1.58062 0.625812 4.8
    endloop
  endfacet
  facet normal 0 0 1
    outer loop
      vertex 0.525329 1.6168 4.8
      vertex -1.68659 0.213066 4.8
      vertex 0.723825 1.53821 4.8
    endloop
  endfacet
  facet normal 0 0 1
    outer loop
      vertex 0.318548 1.66989 4.8
      vertex -1.68659 0.213066 4.8
      vertex 0.525329 1.6168 4.8
    endloop
  endfacet
  facet normal 0 0 1
    outer loop
      vertex 0.106744 1.69664 4.8
      vertex -1.68659 0.213066 4.8
      vertex 0.318548 1.66989 4.8
    endloop
  endfacet
  facet normal 0 0 1
    outer loop
      vertex -0.106744 1.69664 4.8
      vertex -1.68659 0.213066 4.8
      vertex 0.106744 1.69664 4.8
    endloop
  endfacet
  facet normal 0 0 1
    outer loop
      vertex -0.318548 1.66989 4.8
      vertex -1.68659 0.213066 4.8
      vertex -0.106744 1.69664 4.8
    endloop
  endfacet
  facet normal 0 0 1
    outer loop
      vertex -0.525329 1.6168 4.8
      vertex -1.68659 0.213066 4.8
      vertex -0.318548 1.66989 4.8
    endloop
  endfacet
  facet normal 0 0 1
    outer loop
      vertex -0.723825 1.53821 4.8
      vertex -1.68659 0.213066 4.8
      vertex -0.525329 1.6168 4.8
    endloop
  endfacet
  facet normal 0 0 1
    outer loop
      vertex -0.910906 1.43536 4.8
      vertex -1.68659 0.213066 4.8
      vertex -0.723825 1.53821 4.8
    endloop
  endfacet
  facet normal 0 0 1
    outer loop
      vertex -1.08362 1.30987 4.8
      vertex -1.68659 0.213066 4.8
      vertex -0.910906 1.43536 4.8
    endloop
  endfacet
  facet normal 0 0 1
    outer loop
      vertex -1.23925 1.16373 4.8
      vertex -1.68659 0.213066 4.8
      vertex -1.08362 1.30987 4.8
    endloop
  endfacet
  facet normal 0 0 1
    outer loop
      vertex -1.37533 0.999235 4.8
      vertex -1.68659 0.213066 4.8
      vertex -1.23925 1.16373 4.8
    endloop
  endfacet
  facet normal 0 0 1
    outer loop
      vertex -1.48972 0.818981 4.8
      vertex -1.68659 0.213066 4.8
      vertex -1.37533 0.999235 4.8
    endloop
  endfacet
  facet normal 0 0 1
    outer loop
      vertex -1.58062 0.625812 4.8
      vertex -1.68659 0.213066 4.8
      vertex -1.48972 0.818981 4.8
    endloop
  endfacet
  facet normal 0 0 1
    outer loop
      vertex -1.64659 0.422773 4.8
      vertex -1.68659 0.213066 4.8
      vertex -1.58062 0.625812 4.8
    endloop
  endfacet
  facet normal 0 0 1
    outer loop
      vertex 0.9 0.35 4.8
      vertex 0.9 -0.35 4.8
      vertex 1.64659 -0.422773 4.8
    endloop
  endfacet
  facet normal 0 0 1
    outer loop
      vertex -0.35 0.9 4.8
      vertex 0.35 0.9 4.8
      vertex 1.08362 1.30987 4.8
    endloop
  endfacet
  facet normal 0 0 1
    outer loop
      vertex 0.723825 1.53821 4.8
      vertex -0.35 0.9 4.8
      vertex 0.910906 1.43536 4.8
    endloop
  endfacet
  facet normal 0 0 1
    outer loop
      vertex 0.723825 1.53821 4.8
      vertex -1.68659 0.213066 4.8
      vertex -0.35 0.9 4.8
    endloop
  endfacet
  facet normal 0 0 1
    outer loop
      vertex 1.08362 1.30987 4.8
      vertex 0.35 0.9 4.8
      vertex 1.23925 1.16373 4.8
    endloop
  endfacet
  facet normal 0 0 1
    outer loop
      vertex 0.35 0.9 4.8
      vertex 1.58062 0.625812 4.8
      vertex 1.48972 0.818981 4.8
    endloop
  endfacet
  facet normal 0 0 1
    outer loop
      vertex 0.35 0.9 4.8
      vertex 1.37533 0.999235 4.8
      vertex 1.23925 1.16373 4.8
    endloop
  endfacet
  facet normal 0 0 1
    outer loop
      vertex 1.64659 0.422773 4.8
      vertex 0.9 0.35 4.8
      vertex 1.68659 0.213066 4.8
    endloop
  endfacet
  facet normal 0 0 1
    outer loop
      vertex 0.9 0.35 4.8
      vertex 1.68659 -0.213066 4.8
      vertex 1.7 0 4.8
    endloop
  endfacet
  facet normal 0 0 1
    outer loop
      vertex 1.64659 -0.422773 4.8
      vertex 0.9 -0.35 4.8
      vertex 1.58062 -0.625812 4.8
    endloop
  endfacet
  facet normal 0 0 1
    outer loop
      vertex 1.58062 -0.625812 4.8
      vertex 0.35 -0.35 4.8
      vertex 1.48972 -0.818981 4.8
    endloop
  endfacet
  facet normal 0 0 1
    outer loop
      vertex 1.23925 -1.16373 4.8
      vertex 0.35 -0.9 4.8
      vertex 1.08362 -1.30987 4.8
    endloop
  endfacet
  facet normal 0 0 1
    outer loop
      vertex 0.35 -0.9 4.8
      vertex -0.35 -0.9 4.8
      vertex 0.525329 -1.6168 4.8
    endloop
  endfacet
  facet normal 0 0 1
    outer loop
      vertex 0.525329 -1.6168 4.8
      vertex -0.35 -0.9 4.8
      vertex 0.318548 -1.66989 4.8
    endloop
  endfacet
  facet normal 0 0 1
    outer loop
      vertex -0.35 -0.9 4.8
      vertex -0.35 -0.35 4.8
      vertex -0.9 -0.35 4.8
    endloop
  endfacet
  facet normal 0 0 1
    outer loop
      vertex -0.35 -0.9 4.8
      vertex -0.9 -0.35 4.8
      vertex -1.68659 0.213066 4.8
    endloop
  endfacet
  facet normal 0 0 1
    outer loop
      vertex 0.35 -0.9 4.8
      vertex 0.910906 -1.43536 4.8
      vertex 1.08362 -1.30987 4.8
    endloop
  endfacet
  facet normal 0 0 1
    outer loop
      vertex 0.35 -0.35 4.8
      vertex 0.35 -0.9 4.8
      vertex 1.23925 -1.16373 4.8
    endloop
  endfacet
  facet normal 0 0 1
    outer loop
      vertex 0.35 -0.35 4.8
      vertex 1.23925 -1.16373 4.8
      vertex 1.37533 -0.999235 4.8
    endloop
  endfacet
  facet normal 0 0 1
    outer loop
      vertex 0.9 -0.35 4.8
      vertex 0.35 -0.35 4.8
      vertex 1.58062 -0.625812 4.8
    endloop
  endfacet
  facet normal 0 0 1
    outer loop
      vertex 0.35 -0.35 4.8
      vertex 1.37533 -0.999235 4.8
      vertex 1.48972 -0.818981 4.8
    endloop
  endfacet
  facet normal 0 0 1
    outer loop
      vertex 0.35 -0.9 4.8
      vertex 0.723825 -1.53821 4.8
      vertex 0.910906 -1.43536 4.8
    endloop
  endfacet
  facet normal 0 0 1
    outer loop
      vertex -0.9 -0.35 4.8
      vertex -0.9 0.35 4.8
      vertex -1.68659 0.213066 4.8
    endloop
  endfacet
  facet normal 1 0 0
    outer loop
      vertex -0.9 0.35 4.15
      vertex -0.9 0.35 4.8
      vertex -0.9 -0.35 4.8
    endloop
  endfacet
  facet normal 1 0 0
    outer loop
      vertex -0.9 -0.35 4.15
      vertex -0.9 0.35 4.15
      vertex -0.9 -0.35 4.8
    endloop
  endfacet
  facet normal 0 1 0
    outer loop
      vertex -0.35 -0.35 4.8
      vertex -0.35 -0.35 4.15
      vertex -0.9 -0.35 4.8
    endloop
  endfacet
  facet normal 0 1 0
    outer loop
      vertex -0.9 -0.35 4.8
      vertex -0.35 -0.35 4.15
      vertex -0.9 -0.35 4.15
    endloop
  endfacet
  facet normal 1 -2.22045e-16 0
    outer loop
      vertex -0.35 -0.35 4.15
      vertex -0.35 -0.35 4.8
      vertex -0.35 -0.9 4.8
    endloop
  endfacet
  facet normal 1 -2.22045e-16 0
    outer loop
      vertex -0.35 -0.9 4.15
      vertex -0.35 -0.35 4.15
      vertex -0.35 -0.9 4.8
    endloop
  endfacet
  facet normal 2.22045e-16 1 0
    outer loop
      vertex 0.35 -0.9 4.8
      vertex 0.35 -0.9 4.15
      vertex -0.35 -0.9 4.8
    endloop
  endfacet
  facet normal 2.22045e-16 1 0
    outer loop
      vertex -0.35 -0.9 4.8
      vertex 0.35 -0.9 4.15
      vertex -0.35 -0.9 4.15
    endloop
  endfacet
  facet normal -1 2.22045e-16 0
    outer loop
      vertex 0.35 -0.35 4.8
      vertex 0.35 -0.35 4.15
      vertex 0.35 -0.9 4.8
    endloop
  endfacet
  facet normal -1 2.22045e-16 0
    outer loop
      vertex 0.35 -0.9 4.8
      vertex 0.35 -0.35 4.15
      vertex 0.35 -0.9 4.15
    endloop
  endfacet
  facet normal 0 1 0
    outer loop
      vertex 0.9 -0.35 4.8
      vertex 0.9 -0.35 4.15
      vertex 0.35 -0.35 4.8
    endloop
  endfacet
  facet normal 0 1 0
    outer loop
      vertex 0.35 -0.35 4.8
      vertex 0.9 -0.35 4.15
      vertex 0.35 -0.35 4.15
    endloop
  endfacet
  facet normal -1 0 0
    outer loop
      vertex 0.9 0.35 4.8
      vertex 0.9 0.35 4.15
      vertex 0.9 -0.35 4.8
    endloop
  endfacet
  facet normal -1 0 0
    outer loop
      vertex 0.9 -0.35 4.8
      vertex 0.9 0.35 4.15
      vertex 0.9 -0.35 4.15
    endloop
  endfacet
  facet normal 0 -1 0
    outer loop
      vertex 0.9 0.35 4.15
      vertex 0.9 0.35 4.8
      vertex 0.35 0.35 4.8
    endloop
  endfacet
  facet normal 0 -1 0
    outer loop
      vertex 0.35 0.35 4.15
      vertex 0.9 0.35 4.15
      vertex 0.35 0.35 4.8
    endloop
  endfacet
  facet normal -1 2.22045e-16 0
    outer loop
      vertex 0.35 0.9 4.8
      vertex 0.35 0.9 4.15
      vertex 0.35 0.35 4.8
    endloop
  endfacet
  facet normal -1 2.22045e-16 0
    outer loop
      vertex 0.35 0.35 4.8
      vertex 0.35 0.9 4.15
      vertex 0.35 0.35 4.15
    endloop
  endfacet
  facet normal -2.22045e-16 -1 0
    outer loop
      vertex 0.35 0.9 4.15
      vertex 0.35 0.9 4.8
      vertex -0.35 0.9 4.8
    endloop
  endfacet
  facet normal -2.22045e-16 -1 0
    outer loop
      vertex -0.35 0.9 4.15
      vertex 0.35 0.9 4.15
      vertex -0.35 0.9 4.8
    endloop
  endfacet
  facet normal 1 -2.22045e-16 0
    outer loop
      vertex -0.35 0.9 4.15
      vertex -0.35 0.9 4.8
      vertex -0.35 0.35 4.8
    endloop
  endfacet
  facet normal 1 -2.22045e-16 0
    outer loop
      vertex -0.35 0.35 4.15
      vertex -0.35 0.9 4.15
      vertex -0.35 0.35 4.8
    endloop
  endfacet
  facet normal 0 -1 0
    outer loop
      vertex -0.35 0.35 4.15
      vertex -0.35 0.35 4.8
      vertex -0.9 0.35 4.8
    endloop
  endfacet
  facet normal 0 -1 0
    outer loop
      vertex -0.9 0.35 4.15
      vertex -0.35 0.35 4.15
      vertex -0.9 0.35 4.8
    endloop
  endfacet
  facet normal 0 0 1
    outer loop
      vertex -0.35 -0.35 4.15
      vertex -0.35 -0.9 4.15
      vertex 0.35 -0.9 4.15
    endloop
  endfacet
  facet normal 0 0 1
    outer loop
      vertex 0.9 0.35 4.15
      vertex -0.35 -0.35 4.15
      vertex 0.35 -0.35 4.15
    endloop
  endfacet
  facet normal 0 0 1
    outer loop
      vertex 0.35 -0.35 4.15
      vertex -0.35 -0.35 4.15
      vertex 0.35 -0.9 4.15
    endloop
  endfacet
  facet normal 0 0 1
    outer loop
      vertex 0.9 0.35 4.15
      vertex 0.35 -0.35 4.15
      vertex 0.9 -0.35 4.15
    endloop
  endfacet
  facet normal 0 0 1
    outer loop
      vertex 0.35 0.35 4.15
      vertex -0.35 -0.35 4.15
      vertex 0.9 0.35 4.15
    endloop
  endfacet
  facet normal 0 0 1
    outer loop
      vertex 0.35 0.9 4.15
      vertex -0.35 -0.35 4.15
      vertex 0.35 0.35 4.15
    endloop
  endfacet
  facet normal 0 0 1
    outer loop
      vertex -0.35 0.35 4.15
      vertex -0.35 -0.35 4.15
      vertex 0.35 0.9 4.15
    endloop
  endfacet
  facet normal 0 0 1
    outer loop
      vertex -0.9 0.35 4.15
      vertex -0.35 -0.35 4.15
      vertex -0.35 0.35 4.15
    endloop
  endfacet
  facet normal 0 0 1
    outer loop
      vertex -0.35 0.9 4.15
      vertex -0.35 0.35 4.15
      vertex 0.35 0.9 4.15
    endloop
  endfacet
  facet normal 0 0 1
    outer loop
      vertex -0.9 -0.35 4.15
      vertex -0.35 -0.35 4.15
      vertex -0.9 0.35 4.15
    endloop
  endfacet
endsolid OpenSCAD_Model
